<?xml version="1.0" encoding="UTF-8" standalone="no"?>
<!-- Created with Inkscape (http://www.inkscape.org/) -->

<svg
   width="968"
   height="968"
   viewBox="0 0 256.11666 256.11666"
   version="1.1"
   id="svg1"
   xml:space="preserve"
   inkscape:version="1.4.4 (dcaf3e7d9e, 2026-05-05)"
   sodipodi:docname="small.svg"
   xmlns:inkscape="http://www.inkscape.org/namespaces/inkscape"
   xmlns:sodipodi="http://sodipodi.sourceforge.net/DTD/sodipodi-0.dtd"
   xmlns="http://www.w3.org/2000/svg"
   xmlns:svg="http://www.w3.org/2000/svg"><sodipodi:namedview
     id="namedview1"
     pagecolor="#ffffff"
     bordercolor="#000000"
     borderopacity="0.25"
     inkscape:showpageshadow="2"
     inkscape:pageopacity="0.0"
     inkscape:pagecheckerboard="true"
     inkscape:deskcolor="#d1d1d1"
     inkscape:document-units="mm"
     inkscape:zoom="0.4866836"
     inkscape:cx="712.98889"
     inkscape:cy="256.84038"
     inkscape:window-width="1707"
     inkscape:window-height="1015"
     inkscape:window-x="0"
     inkscape:window-y="0"
     inkscape:window-maximized="1"
     inkscape:current-layer="layer1" /><defs
     id="defs1" /><g
     inkscape:label="Layer 1"
     inkscape:groupmode="layer"
     id="layer1"
     transform="translate(25.864517,1.4599091)"><path
       style="fill:#000000"
       d="M 100.43747,250.88271 C 87.349363,248.48167 76.77567,234.45477 71.10969,211.97693 l -0.967055,-3.83646 -3.020313,-0.32185 c -5.596938,-0.59642 -12.906659,-2.68808 -17.533366,-5.01714 -0.997179,-0.50198 -1.84224,-0.87528 -1.877913,-0.82956 -0.03567,0.0457 -0.205912,0.9628 -0.378309,2.03795 -1.103774,6.88367 -8.50434,16.29011 -12.467183,15.84634 l -0.661459,-0.0741 v -3.63825 c 0,-2.00104 -0.02827,-3.63815 -0.06282,-3.63802 -0.03455,1.3e-4 -0.493961,0.86344 -1.020911,1.91846 -2.519638,5.04466 -6.881675,10.10084 -10.569859,12.25187 -4.050788,2.3625 -4.476047,2.25375 -4.062997,-1.03907 0.360357,-2.87274 0.312688,-2.8795 -1.560566,-0.22109 -4.793375,6.80246 -12.5071698,11.69631 -18.4359872,11.69631 -1.4708568,0 -1.3943692,-0.42073 0.92134967,-5.06808 3.42010253,-6.86371 3.38490243,-6.63279 0.66053859,-4.33325 -6.53821366,5.51868 -13.76950306,8.32403 -20.63750006,8.00623 -5.157133,-0.23864 -5.306981,-0.54682 -2.087622,-4.29344 5.874888,-6.83706 10.405728,-13.33205 17.4419316,-25.00312 C 7.5553365,185.246 14.98848,177.88227 23.637662,177.84204 c 2.033761,-0.009 2.019095,0.0659 0.711669,-3.6551 -0.647926,-1.84401 -1.571818,-4.70489 -2.053093,-6.35753 -1.040285,-3.57219 -0.569743,-3.09638 -4.628605,-4.68035 -43.102026,-16.82049 -44.03604,-47.51159 -1.984375,-65.205308 5.328062,-2.24184 4.808878,-1.822715 5.449504,-4.399253 0.889909,-3.579131 2.657352,-8.301494 4.392418,-11.735932 0.917099,-1.815333 1.667453,-3.33338 1.667453,-3.373438 0,-0.04006 -0.744141,-0.07373 -1.653646,-0.07483 -5.278124,-0.0064 -9.918841,-1.980606 -13.692188,-5.824852 -3.3291238,-3.391675 -3.3950395,-4.4919 -0.269115,-4.4919 0.980518,0 2.343168,-0.07681 3.028112,-0.170694 l 1.245353,-0.170695 -1.840172,-0.71596 C 7.379344,64.406032 2.0821717,59.615583 -0.76212793,53.626297 -2.3877259,50.203249 -1.9748509,49.892104 2.7385315,50.988181 6.2787326,51.81144 6.458139,51.774883 4.7826756,50.571657 -1.5689816,46.010242 -5.899227,38.857759 -6.948432,31.194801 c -0.5671386,-4.142146 -0.4157178,-4.166204 5.4159962,-0.860526 2.43286373,1.379057 4.384626,2.417081 4.3372495,2.306721 C 2.7574371,32.530636 2.0205136,31.544788 1.167206,30.450223 -4.5205996,23.154296 -7.4065184,13.27278 -6.1670757,5.3373129 -5.5908829,1.648269 -5.3395643,1.7283768 -1.0544726,6.9669568 4.9621232,14.322326 11.322805,20.831593 17.932217,26.397178 c 4.417088,3.719495 7.150997,5.779424 15.557577,11.722225 10.27538,7.263897 14.34034,12.767057 14.34034,19.414012 0,1.550899 -0.270389,1.571171 3.836459,-0.287642 5.190736,-2.349395 9.133684,-3.486226 14.79223,-4.264899 l 3.150564,-0.433549 1.018386,-3.915376 C 84.737446,-5.6153571 122.15716,-6.0946134 135.91317,47.7958 l 1.21385,4.75536 3.49,0.451245 c 5.51484,0.713049 10.69689,2.245034 16.32063,4.824918 1.14596,0.525705 2.12822,0.955827 2.18282,0.955827 0.0546,0 0.10132,-0.506016 0.10385,-1.12448 0.0297,-7.260927 3.60841,-11.82218 16.47388,-20.996615 15.27865,-10.895276 21.7353,-16.749079 32.11512,-29.1165675 4.70155,-5.6018588 4.86146,-5.6904243 5.39553,-2.9882241 1.59313,8.0606816 -1.59412,18.9304836 -7.77242,26.5070436 -0.68064,0.834689 -1.23754,1.571579 -1.23754,1.637534 0,0.103631 2.0874,-1.022597 7.85856,-4.239977 2.09706,-1.169101 2.41538,-0.733538 1.98046,2.709935 -0.95094,7.529054 -5.43232,14.834117 -12.03305,19.614965 -1.65952,1.201979 -1.67513,1.200269 2.35979,0.258577 4.65559,-1.086549 5.07034,-0.825596 3.68096,2.316031 -2.6156,5.914331 -8.42268,11.042535 -16.06172,14.184017 -0.82933,0.341055 -0.69817,0.367188 2.20137,0.438595 4.24555,0.104557 4.51111,0.533604 2.13287,3.445928 -3.42986,4.200093 -9.13118,6.932405 -14.46537,6.932405 -0.95202,0 -1.73095,0.04287 -1.73095,0.09526 0,0.0524 0.76015,1.689505 1.68921,3.638021 1.93567,4.05965 3.26565,7.71712 4.14515,11.399247 l 0.61263,2.564823 2.92807,1.24274 c 43.64102,18.522312 43.83277,47.177282 0.43902,65.607802 l -3.86096,1.63986 -0.96523,3.14611 c -0.53087,1.73037 -1.51314,4.58618 -2.18281,6.34625 -0.66967,1.76007 -1.21758,3.26512 -1.21758,3.34457 0,0.0794 0.62508,0.22513 1.38906,0.32374 9.9484,1.2842 15.44251,6.76723 27.44236,27.38702 8.30304,14.26743 12.20187,19.79086 19.2566,27.28061 2.77748,2.94874 2.08728,3.53113 -4.16719,3.51626 -7.16073,-0.017 -13.47953,-2.66713 -19.51302,-8.18375 -1.05502,-0.96465 -1.91823,-1.6827 -1.91823,-1.59569 0,0.087 1.06165,2.4345 2.35921,5.21662 2.89443,6.20599 2.88995,6.25296 -0.53982,5.65737 -6.33654,-1.10037 -12.67795,-5.71391 -16.83078,-12.24483 -1.47106,-2.31346 -1.45513,-2.32158 -1.10236,0.56241 0.42721,3.49261 0.26335,3.62634 -2.64736,2.16053 -4.53333,-2.28295 -9.16818,-7.36881 -11.86781,-13.02266 l -0.98879,-2.07083 -0.13229,3.7011 c -0.15542,4.34824 -0.15185,4.34427 -2.70662,3.0095 -4.89861,-2.55933 -9.22923,-8.88843 -10.24913,-14.97883 -0.17667,-1.05502 -0.36925,-1.91823 -0.42795,-1.91823 -0.0587,0 -1.32787,0.5497 -2.82037,1.22154 -5.33088,2.39969 -11.80893,4.10553 -17.06731,4.49429 l -2.44742,0.18093 -0.25042,0.95423 c -0.13773,0.52482 -0.62235,2.4425 -1.07693,4.26151 -6.22746,24.91945 -20.481,40.24005 -34.96527,37.58287 z m 5.84829,-1.87976 c 17.21524,-2.79317 28.26584,-25.98779 32.956,-69.1729 0.22126,-2.03729 0.46833,-4.21018 0.54905,-4.82865 l 0.14676,-1.12447 h -2.00059 c -2.90999,0 -3.13895,0.30622 9.07293,-12.13456 14.80032,-15.07772 18.1802,-18.91933 24.038,-27.32184 4.63453,-6.64784 11.17325,-18.63161 10.50975,-19.26163 -0.13487,-0.12807 -1.04659,-0.47024 -2.02604,-0.76037 l -1.78081,-0.52751 -1.80937,3.74306 c -6.06291,12.54235 -15.00568,24.48019 -27.97568,37.34514 -1.76051,1.74625 -5.05677,5.31812 -7.32503,7.9375 -6.76412,7.81118 -14.26455,14.27541 -27.32621,23.55101 -1.60073,1.13674 -3.01645,2.15954 -3.14603,2.27288 -0.32214,0.28176 6.31949,3.46511 9.34263,4.47796 2.87758,0.96407 2.80244,0.99408 2.39736,-0.95717 -1.92427,-9.26916 10.52423,-13.90894 13.14354,-4.89883 1.5421,5.30463 -3.32611,13.4572 -7.34717,12.30398 -1.26628,-0.36317 -1.11601,-0.92747 0.39053,-1.46647 5.78858,-2.071 7.93173,-10.37145 3.4293,-13.28172 -5.09272,-3.29183 -10.39647,3.45787 -7.06473,8.99078 3.39786,5.6427 -11.18007,0.0301 -26.902231,-10.35758 -14.661298,-9.68675 -37.561908,-29.14791 -49.801249,-42.32158 -1.897445,-2.0423 -3.653139,-3.93209 -3.901544,-4.19955 -0.432316,-0.46547 -0.498717,-0.39902 -1.551554,1.55288 l -1.099909,2.03916 0.97972,1.22525 c 4.952653,6.19385 25.219566,24.29141 39.778202,35.52038 14.530253,11.20707 31.999685,21.36586 40.606505,23.61341 2.44828,0.63934 2.60168,1.27747 0.39601,1.64738 -0.92917,0.15582 -0.9364,0.1677 -1.40994,2.31494 -3.32252,15.06573 -11.98223,24.62358 -20.41028,22.52713 -9.9381,-2.47207 -15.651035,-15.58616 -17.46031,-40.08028 -0.533939,-7.22851 -0.139014,-6.3926 -4.748033,-10.04974 l -3.936897,-3.12382 -2.140923,-0.15542 c -1.177508,-0.0855 -2.971996,-0.18729 -3.98775,-0.22624 l -1.846827,-0.0708 0.07152,1.19063 c 0.391636,6.52012 2.839183,23.04117 4.683939,31.6168 6.092832,28.32346 19.549484,44.8778 34.507361,42.45089 z m -6.877174,-5.8812 c -6.72209,-2.29165 -9.336365,-6.08505 -6.268555,-9.09588 6.406242,-6.28725 14.285979,-6.34464 20.589729,-0.14996 5.03428,4.94717 -6.01182,12.07861 -14.321174,9.24584 z m 7.480994,-1.50758 c 3.46947,-1.07161 7.52174,-4.45171 6.7166,-5.60247 -4.25427,-6.08055 -13.11464,-6.61997 -19.143232,-1.16544 -3.787867,3.42717 5.994092,8.75471 12.426632,6.76791 z m -4.46224,-1.34859 c -0.45816,-0.13421 -1.19643,-0.65792 -1.6406,-1.1638 -3.010599,-3.42888 1.31968,-8.30507 5.02944,-5.66349 3.44242,2.45122 0.67884,8.01884 -3.38884,6.82729 z M 82.623176,221.6635 c -2.760324,-3.07198 -2.614056,-2.69405 -2.404301,-6.21219 0.239882,-4.02343 0.308917,-4.06186 2.676028,-1.49001 2.695598,2.92876 2.62672,2.74135 2.347002,6.38587 -0.290816,3.78911 -0.363841,3.82581 -2.618729,1.31633 z m 1.437919,-3.60116 c 0.02223,-1.08594 -2.159463,-3.4749 -2.397095,-2.62483 -0.482453,1.72587 -0.265587,2.71369 0.892389,4.06484 l 1.120754,1.30771 0.185206,-1.04313 c 0.101864,-0.57372 0.1913,-1.34078 0.198746,-1.70459 z m 37.762065,5.35782 c -0.0669,-0.10914 -0.20604,-1.62719 -0.30931,-3.37344 l -0.18776,-3.175 2.06028,-2.24896 c 3.1101,-3.39492 2.98488,-3.43401 3.2079,1.00159 l 0.15724,3.1273 -0.88048,1.04441 c -2.41172,2.86075 -3.77037,4.07716 -4.04787,3.6241 z m 3.48565,-6.74688 c -0.0857,-2.13364 -0.10393,-2.13954 -1.49996,-0.48392 -1.09151,1.29446 -1.09689,1.31145 -0.92805,2.92683 l 0.16982,1.62481 1.16495,-1.14089 1.16494,-1.14089 z m -48.653437,-17.6165 c -6.603242,-4.2064 -6.403671,-14.7156 0.346989,-18.27214 4.776999,-2.51674 8.729283,11.00396 4.659083,15.93864 -2.270069,2.75222 -3.470419,3.31174 -5.006072,2.3335 z M 79.94066,196.378 c 3.655351,-3.90787 3.170034,-10.42219 -1.014221,-13.61367 -1.191028,-0.90845 -1.219528,-0.90141 -2.852074,0.70374 -3.908293,3.84272 -3.795386,9.7997 0.254151,13.40899 1.704568,1.51926 1.727163,1.51614 3.612144,-0.49906 z m -3.800109,-3.76811 c -1.349681,-0.9158 -1.748488,-2.28542 -1.095386,-3.76186 1.578568,-3.56862 6.866462,-1.68052 5.827884,2.0809 -0.555701,2.01258 -2.976521,2.87244 -4.732498,1.68096 z m 50.883039,0.0656 c -1.04301,-0.63596 -1.40595,-1.28713 -1.40595,-2.52245 0,-2.9716 3.39042,-4.47196 5.45042,-2.41197 2.72412,2.72412 -0.73935,6.9497 -4.04447,4.93442 z M 3.8489056,233.92183 C 11.756848,230.77 18.912325,221.66773 21.096246,211.982 c 0.925279,-4.10362 0.962447,-3.90802 -0.578905,-3.04654 -1.503696,0.84043 -4.434856,1.84522 -6.114498,2.09603 -1.052253,0.15713 -1.358711,0.33271 -1.719792,0.98532 -0.241657,0.43677 -1.714738,2.74152 -3.2735134,5.12167 -2.4444441,3.73251 -7.447783,13.0844 -9.04347034,16.90341 l -0.422919,1.01219 0.99088807,-0.18271 C 1.4790247,234.77088 2.790716,234.34359 3.8489056,233.92183 Z m 202.0644344,0.52784 c -0.81088,-2.55485 -6.28849,-13.54294 -8.16916,-16.38733 -1.2027,-1.81901 -2.65579,-4.06411 -3.22908,-4.98911 l -1.04235,-1.68183 -2.50828,-0.62964 c -1.37956,-0.3463 -3.31196,-1.02624 -4.29422,-1.51098 -0.98227,-0.48473 -1.78594,-0.79679 -1.78594,-0.69346 0,6.51992 6.80643,18.40413 13.09687,22.86748 3.55619,2.52327 8.35361,4.35273 7.93216,3.02487 z m 21.80251,-0.41353 0.82893,-0.16579 -1.94129,-2.14931 c -6.24309,-6.91212 -9.52694,-11.6441 -17.16686,-24.73721 -9.6181,-16.48327 -13.58403,-21.58916 -19.41594,-24.99688 -3.29992,-1.92821 -9.02841,-3.12944 -9.6551,-2.02461 -0.12382,0.21828 -0.84357,1.52797 -1.59945,2.91042 -0.75588,1.38245 -2.01024,3.42464 -2.78746,4.5382 -0.77721,1.11357 -1.41193,2.06607 -1.41048,2.11667 0.001,0.0506 0.90275,0.11683 2.00289,0.14718 8.06682,0.22253 15.69332,6.34573 22.28796,17.89464 1.73174,3.03274 1.47273,3.47578 -2.13464,3.65142 -1.60683,0.0782 -1.61344,0.045 0.69869,3.51224 8.85706,13.28184 21.16968,21.12764 30.29275,19.30303 z M -13.5532,233.07359 c 8.1913555,-2.33717 16.1990571,-8.75714 22.3721908,-17.93632 2.6777132,-3.98164 2.6593492,-3.83786 0.5157298,-4.03803 -3.3004035,-0.3082 -3.3956449,-0.64571 -1.1989269,-4.24864 6.8655323,-11.26047 13.1482353,-16.28787 21.4585813,-17.1711 l 2.810792,-0.29873 -1.84126,-2.79099 c -1.012693,-1.53504 -2.305905,-3.71371 -2.873803,-4.8415 -0.810779,-1.61012 -1.159766,-2.05557 -1.624902,-2.07403 -10.070883,-0.39972 -16.2512797,5.47521 -30.2246801,28.7308 -5.9155649,9.84514 -10.5825969,16.56126 -15.7199299,22.62188 -1.171844,1.38244 -2.132838,2.61918 -2.135542,2.74829 -0.0099,0.47332 6.127358,-0.0356 8.46175,-0.70163 z m 120.44611,-7.86792 c 7.13413,-2.69219 16.27949,-21.99465 11.27572,-23.79888 -2.41407,-0.87045 -8.57995,-3.86258 -12.1823,-5.91175 l -3.09485,-1.76047 -4.048903,2.42066 c -2.226895,1.33137 -5.734204,3.23121 -7.794019,4.22187 l -3.74512,1.80121 0.505525,2.31962 c 3.400479,15.60325 10.937756,23.78185 19.083947,20.70774 z m -82.279976,-2.39856 c 4.172241,-3.7656 7.257999,-8.85452 9.585828,-15.80859 1.515402,-4.52706 1.582416,-4.38218 1.663383,3.59621 l 0.07055,6.95218 1.530918,-1.03963 c 4.389874,-2.9811 7.66312,-8.6102 8.140985,-14.00027 l 0.157354,-1.77488 -1.281014,-0.77722 c -2.384883,-1.44696 -6.033641,-4.32193 -8.132022,-6.40747 l -2.088507,-2.07572 -3.070868,0.0202 c -7.6197,0.0501 -13.313656,4.06069 -19.985636,14.07706 -2.7509496,4.12989 -2.770862,3.76212 0.203695,3.76212 4.784074,0 8.673754,-1.56613 13.168369,-5.30207 1.365547,-1.13505 2.527395,-2.01914 2.581883,-1.96465 0.173956,0.17395 -1.316577,2.53418 -2.259533,3.57792 -1.073695,1.18845 -4.584854,16.39146 -4.584854,19.85201 0,0.49207 2.526453,-1.08698 4.299467,-2.68719 z m 161.468046,1.4068 c -0.98605,-8.01256 -3.10636,-17.29663 -4.23751,-18.55454 -2.7309,-3.03694 -2.94795,-4.38589 -0.34365,-2.13585 5.008,4.32678 16.08449,8.22595 16.08449,5.6621 0,-0.24466 -1.80693,-3.12732 -3.30868,-5.27849 -6.02352,-8.62828 -11.78659,-12.43137 -18.83561,-12.42977 l -2.69742,6.1e-4 -2.46196,2.40428 c -2.44393,2.38668 -5.81293,5.04233 -8.08879,6.37607 l -1.18612,0.69511 0.16343,1.56361 c 0.59033,5.64797 4.56021,12.28652 8.56775,14.32726 l 0.8599,0.43788 v -4.06667 c 0,-9.85302 0.30861,-11.06539 1.71281,-6.72869 2.60309,8.03933 7.31083,15.10918 12.13904,18.2298 1.96443,1.26968 1.85459,1.30351 1.63232,-0.50271 z M 69.691171,205.69307 c -0.07427,-0.25466 -0.276379,-1.20716 -0.449128,-2.11666 -0.294498,-1.55051 -0.359383,-1.65365 -1.040256,-1.65365 -16.652405,0 -33.761508,-13.90423 -38.905465,-31.61771 -1.002206,-3.45114 -0.897942,-3.3263 -3.492751,-4.18213 -2.413814,-0.79612 -2.346415,-0.92257 -1.356439,2.54484 5.100685,17.86528 16.225349,29.84653 32.598968,35.10905 5.792219,1.86163 12.945284,2.94563 12.645071,1.91626 z m 73.653559,-0.18201 c 19.10199,-3.35455 32.64163,-15.81601 39.29135,-36.16254 1.44511,-4.4217 1.56213,-4.14409 -1.29778,-3.07891 l -2.31019,0.86044 -1.13245,3.46368 c -5.66449,17.32536 -19.33762,28.828 -36.93218,31.06954 -1.38245,0.17612 -2.64375,0.35521 -2.80289,0.39796 -0.28054,0.0754 -0.90128,2.58832 -0.90128,3.64865 0,0.6064 1.84308,0.54619 6.08542,-0.19882 z m -74.877095,-5.69541 c 0,-0.14026 -0.355831,-2.43221 -0.790736,-5.09323 -0.75297,-4.60713 -2.136604,-15.09347 -2.531544,-19.18617 -0.210257,-2.17886 0.06293,-2.00683 -3.689179,-2.32309 -8.015356,-0.6756 -22.493498,-3.19905 -28.666179,-4.99633 l -2.207844,-0.64285 0.174963,0.93263 c 2.897019,15.44244 17.341154,28.48163 34.516591,31.15925 2.868753,0.44724 3.193928,0.46249 3.193928,0.14979 z m 22.886458,-1.64482 c 1.74625,-0.87381 4.581754,-2.43998 6.301119,-3.48038 l 3.126118,-1.89164 -0.74487,-0.59494 c -0.409677,-0.32721 -1.224285,-0.84962 -1.810242,-1.1609 l -1.065375,-0.56597 -2.824769,1.62722 c -1.553622,0.89496 -3.973866,2.18275 -5.378318,2.86175 l -2.553551,1.23453 0.174633,1.33978 c 0.39526,3.03241 0.06299,2.98853 4.775255,0.63055 z m 52.255217,1.19628 c 14.89796,-2.70003 27.45975,-13.84275 32.31919,-28.66819 1.0634,-3.2443 1.26862,-3.1111 -3.06652,-1.99032 -7.60081,1.96508 -18.99578,3.95529 -26.60684,4.64708 -1.81901,0.16533 -3.55257,0.34684 -3.85236,0.40336 -0.49848,0.094 -0.58492,0.45953 -1.01142,4.2775 -0.63718,5.70397 -1.9,14.96056 -2.53989,18.61763 -0.29059,1.6608 -0.52958,3.12265 -0.53109,3.24855 -0.003,0.26167 2.02064,0.0567 5.28893,-0.53561 z m -52.70553,-7.48226 c 5.451949,-2.96521 5.256407,-2.29788 1.423145,-4.8568 -1.699224,-1.13433 -4.02849,-2.73222 -5.176146,-3.55087 l -2.086647,-1.48846 0.167969,1.43421 c 0.09238,0.78881 0.292589,3.3392 0.444904,5.66754 0.360072,5.50418 0.26607,5.24123 1.653686,4.62592 0.612142,-0.27144 2.220032,-1.09564 3.573089,-1.83154 z m 20.18456,-6.13986 c 6.61702,-4.53954 18.2156,-13.71714 22.16702,-17.54009 2.2608,-2.18729 9.5602,-10.24411 9.5602,-10.5522 0,-0.5201 -9.60178,6.3846 -18.52084,13.31844 -6.35331,4.93918 -12.47262,9.5206 -16.3477,12.23921 -3.80973,2.67277 -3.68825,2.42494 -1.73417,3.53801 1.98208,1.129 1.67519,1.19216 4.87549,-1.00337 z m -3.16307,-4.82309 c 2.71123,-1.94464 7.62815,-5.60521 10.9265,-8.13461 15.59913,-11.9625 17.41955,-13.26945 26.22944,-18.8311 4.16373,-2.62855 9.3802,-7.92303 15.94515,-16.18362 l 1.8835,-2.36998 -0.69283,-1.20189 c -8.83038,-15.31869 -26.99349,-36.672645 -41.2296,-48.472696 -5.27777,-4.374649 -13.67866,-10.127405 -14.48323,-9.91781 -3.1215,0.813178 -15.613463,9.921501 -25.468857,18.570227 -6.050154,5.309392 -9.667959,8.319169 -14.155208,11.776179 -6.565239,5.05789 -15.423068,16.1328 -21.388635,26.74212 -1.151195,2.04731 -1.28418,1.76855 3.084997,6.46675 12.429468,13.36548 34.5058,32.25744 49.300037,42.18883 5.254916,3.52763 4.152026,3.59704 10.048736,-0.6324 z m -9.030552,-25.20002 c -13.972166,-1.71626 -26.409527,-8.40518 -39.489063,-21.23757 -5.618297,-5.51213 -5.528756,-4.47098 -0.801127,-9.31522 28.969834,-29.684452 60.012672,-30.146023 89.039672,-1.32392 6.11814,6.07494 5.88766,5.26573 2.50134,8.78204 -16.2887,16.91398 -34.5556,25.14542 -51.250822,23.09467 z m 7.807092,-2.22824 c 14.38137,-1.1678 26.84935,-7.65824 39.79515,-20.71608 l 3.28453,-3.31296 -3.41682,-3.49645 C 119.24352,98.214892 89.550711,97.912802 62.117634,125.11102 l -4.365625,4.32825 4.104372,4.02872 c 12.493335,12.26307 25.484961,19.00007 38.585239,20.00894 1.55031,0.1194 2.83121,0.23386 2.84645,0.25437 0.0152,0.0205 1.55143,-0.0864 3.41374,-0.23766 z m -6.40083,-1.56062 C 84.959742,149.4828 76.423103,133.486 82.995899,119.50505 92.467473,99.358106 122.10738,103.221 126.5573,125.18228 c 3.04726,15.03884 -10.86151,29.20952 -26.25632,26.75074 z m 5.94927,-2.40681 c 13.90622,-1.74369 22.12896,-16.19025 16.34303,-28.71313 -8.18682,-17.71931 -33.949681,-15.24967 -38.796754,3.71905 -3.470798,13.58276 8.367441,26.76035 22.453724,24.99408 z m -2.66746,-2.53483 c -0.2773,-0.2773 -0.23333,-5.92279 0.0461,-5.92279 0.41672,0 0.55791,0.78559 0.53887,2.9982 -0.0188,2.184 -0.23662,3.27297 -0.585,2.92459 z m -4.679657,-1.21278 c -0.01095,-0.92888 1.244407,-4.90004 1.622947,-5.13399 0.62183,-0.38431 -0.45237,4.31036 -1.218044,5.32337 -0.384081,0.50816 -0.396752,0.50223 -0.404903,-0.18938 z m 8.887677,-0.54282 c -0.88869,-2.44869 -1.36615,-5.55632 -0.66994,-4.36051 0.43018,0.7389 1.21696,3.15888 1.42246,4.37522 0.24743,1.46455 -0.21897,1.45543 -0.75252,-0.0147 z M 94.6709,144.0791 c -0.0097,-0.57174 2.322518,-4.37284 2.903206,-4.73172 0.772344,-0.47734 -0.915754,2.87719 -2.296688,4.56389 -0.557628,0.6811 -0.59763,0.69217 -0.606518,0.16783 z m 16.84209,-1.09228 c -1.33304,-2.21933 -1.81576,-3.23721 -1.69995,-3.58463 0.1138,-0.3414 1.56758,1.54718 2.3011,2.98932 1.25009,2.45774 0.79074,2.91262 -0.60115,0.59531 z m -20.555772,-1.46763 c 0,-0.53251 2.356738,-3.09307 3.411635,-3.7067 1.38813,-0.80747 0.989403,0.0669 -0.831947,1.8243 -2.229121,2.1509 -2.579688,2.40671 -2.579688,1.8824 z m 23.719072,-1.24739 c -1.77755,-1.66281 -2.46424,-2.55456 -2.18341,-2.83539 0.20072,-0.20072 2.91967,2.14791 3.61172,3.11981 1.07995,1.51665 0.3394,1.36918 -1.42831,-0.28442 z m -13.4596,-1.95904 c -4.855053,-1.40162 -7.919179,-6.36252 -6.81748,-11.03768 1.44861,-6.1473 7.31126,-9.30735 13.14937,-7.0877 l 0.65055,0.24734 -0.66104,0.7856 c -2.72626,3.23997 1.76878,7.96349 5.01471,5.2696 0.54765,-0.45451 0.67219,-0.19974 0.82344,1.68452 0.52354,6.5222 -5.96007,11.92808 -12.15955,10.13832 z m -12.766233,-0.95583 c 0.573898,-0.63415 4.633031,-2.71693 4.85752,-2.49244 0.222533,0.22253 -0.892649,1.02392 -2.918616,2.09738 -2.012572,1.06635 -2.667105,1.19972 -1.938904,0.39506 z m 29.891143,0.23375 c -3.2894,-1.78291 -5.12726,-3.21411 -3.50573,-2.73002 1.75766,0.52472 5.43221,3.04708 4.40663,3.02489 -0.20445,-0.004 -0.60986,-0.13712 -0.9009,-0.29487 z m -31.882298,-4.15816 c 0,-0.24844 2.974247,-1.21378 4.564062,-1.48134 1.350169,-0.22723 1.267364,0.24253 -0.132291,0.7505 -2.424903,0.88006 -4.431771,1.21101 -4.431771,0.73084 z m 33.205218,0.10188 c -0.14552,-0.0462 -1.12779,-0.34944 -2.18282,-0.67375 -2.11374,-0.64977 -2.55349,-1.14839 -0.79375,-0.90002 1.56467,0.22084 4.43177,1.16319 4.43177,1.45662 0,0.22957 -0.87883,0.30032 -1.4552,0.11715 z m -33.33751,-4.34737 -0.79375,-0.17729 0.661458,-0.18467 c 1.537251,-0.42918 5.72189,-0.14479 5.405368,0.36735 -0.164946,0.26689 -4.071907,0.26289 -5.273076,-0.005 z m 29.81044,0.009 c -0.51258,-0.32494 0.92835,-0.56246 3.41223,-0.56246 2.03546,0 2.92612,0.3167 1.76551,0.62777 -0.89124,0.23887 -4.7752,0.18988 -5.17774,-0.0653 z m -27.363044,-3.91374 c -2.046968,-0.687 -2.614956,-1.14663 -1.416933,-1.14663 0.879057,0 3.892749,0.95686 4.529552,1.43816 0.875207,0.66147 -0.71754,0.5123 -3.112619,-0.29153 z m 27.181114,0.2923 c 0.63211,-0.47777 4.64826,-1.77849 4.85452,-1.57223 0.47559,0.47559 -3.09202,1.9947 -4.64291,1.97697 -0.71104,-0.008 -0.7182,-0.0218 -0.21161,-0.40474 z M 91.612473,122.2416 c -1.808922,-0.91978 -3.40522,-2.05875 -3.188758,-2.27522 0.220887,-0.22088 3.946825,1.68619 4.509827,2.3083 0.76679,0.84729 0.391899,0.8379 -1.321069,-0.0331 z m 23.398727,-0.0657 c 0.64121,-0.68254 3.44659,-2.27356 4.00887,-2.27356 0.6173,0 -0.81157,1.24963 -2.39216,2.09207 -1.85928,0.99099 -2.43825,1.05598 -1.61671,0.18149 z m -21.993385,-3.57998 c -0.987807,-1.00958 -1.796013,-1.96208 -1.796013,-2.11667 0,-0.62364 0.672028,-0.19295 2.40862,1.54364 1.003592,1.00359 1.824713,1.95609 1.824713,2.11667 0,0.66039 -0.738365,0.19275 -2.43732,-1.54364 z m 19.370655,1.54364 c 0,-0.16058 0.82113,-1.11308 1.82472,-2.11667 1.74591,-1.74591 2.40862,-2.16763 2.40862,-1.53276 0,0.16058 -0.82112,1.11308 -1.82471,2.11667 -1.74591,1.74591 -2.40863,2.16763 -2.40863,1.53276 z m -2.63521,-1.56013 c -0.004,-0.40524 1.77329,-3.68907 2.4951,-4.6109 0.79082,-1.00995 0.72669,-0.13034 -0.10934,1.49966 -0.96185,1.87533 -2.38017,3.72493 -2.38576,3.11124 z m -12.894893,-1.12448 c -0.925741,-1.29614 -1.932399,-3.20719 -1.932399,-3.66849 0,-0.86418 2.340164,2.45232 3.055271,4.32995 0.323668,0.84984 -0.310105,0.4765 -1.122872,-0.66146 z m 2.973906,-2.06418 c -0.668827,-2.11719 -0.903507,-4.03795 -0.433137,-3.54499 0.278487,0.29187 1.193764,3.23513 1.456324,4.68313 0.32493,1.79194 -0.32647,1.06738 -1.023187,-1.13814 z m 7.111457,0.8512 c 0.19839,-1.57992 1.09283,-4.17261 1.53342,-4.44491 0.3915,-0.24196 0.0826,1.61729 -0.61594,3.70707 -0.74153,2.21845 -1.14406,2.54216 -0.91748,0.73784 z m -3.39676,0.22079 c -0.26188,-1.32085 -0.0785,-5.17311 0.24255,-5.09499 0.3477,0.0846 0.48528,4.03224 0.17948,5.14975 l -0.23843,0.87128 z m -31.397217,55.45979 c -0.06063,-0.0565 -2.253368,-1.9143 -4.872743,-4.12847 -2.619375,-2.21417 -6.310313,-5.37244 -8.202084,-7.01838 -8.675083,-7.54778 -9.536224,-8.10243 -13.758333,-8.86159 C 18.202548,147.03847 4.8181777,139.62537 5.2711587,129.73403 5.7041278,120.27966 18.788752,113.52931 46.374926,108.52862 c 6.407142,-1.16146 7.418884,-1.77021 12.630826,-7.59981 1.534003,-1.715794 4.75393,-5.203212 7.155393,-7.749826 2.401463,-2.546615 4.346538,-4.652839 4.322389,-4.680497 -0.441822,-0.506039 -19.574055,2.146843 -29.135692,4.039966 -58.204199,11.523957 -73.213252,45.196897 -29.414406,65.991497 15.713479,7.46037 29.521226,10.82338 54.682115,13.31838 1.368615,0.13571 5.662108,0.19297 5.534202,0.0738 z m -33.378436,-5.96732 c -3.416722,-1.09224 -8.579357,-5.96856 -7.978034,-7.53559 0.814087,-2.12147 7.788253,-4.94218 11.317697,-4.57745 5.437508,0.56191 12.084145,6.56407 9.75405,8.80827 -3.440692,3.31387 -8.818948,4.6713 -13.093713,3.30477 z m 6.269698,-1.21426 c 1.888097,-0.49179 4.338275,-1.76327 5.268107,-2.73381 l 0.684875,-0.71485 -1.142467,-1.39275 c -4.234237,-5.16183 -10.785242,-6.05577 -15.927378,-2.17342 -1.782455,1.34577 -1.793003,1.21484 0.274457,3.40646 3.259412,3.45515 6.846891,4.64907 10.842406,3.60837 z m -5.06939,-1.70083 c -2.09049,-1.27465 -2.178514,-3.97227 -0.180887,-5.5436 0.964898,-0.75899 2.660574,-0.73625 3.833081,0.0514 3.478049,2.33645 -0.07206,7.67513 -3.652194,5.49219 z M 9.5516443,150.97028 c -2.8638544,-3.13865 -2.9082663,-3.02252 1.1559377,-3.02252 h 3.3975 l 2.178151,2.36185 c 2.806475,3.04316 2.854506,2.92982 -1.241483,2.92982 h -3.419634 z m 5.0732807,-0.37669 c -1.298351,-1.31817 -1.309191,-1.32291 -3.022816,-1.32291 H 9.8823173 l 1.3030247,1.32291 c 1.298352,1.31817 1.309191,1.32292 3.022816,1.32292 H 15.92795 Z M -4.3908203,138.41746 c -6.0674027,-3.84783 -6.1627887,-12.38002 -0.1808926,-16.18067 4.39108454,-2.78992 9.8030697,5.88494 7.2092977,11.55576 -1.97176757,4.31092 -4.6964064,6.10382 -7.0284051,4.62491 z m 2.9026095,-1.53685 c 4.0253713,-2.91949 4.3797262,-9.20719 0.70557647,-12.5198 -2.19838247,-1.98206 -4.65269827,-0.79479 -6.19073987,2.99475 -1.8715125,4.61118 2.2919173,11.84102 5.4851634,9.52505 z m -3.0400335,-4.11875 c -1.6058998,-0.89008 -1.8326937,-3.17178 -0.4524564,-4.55202 2.5291699,-2.52917 6.5596579,0.52953 4.74523034,3.60111 -0.75515387,1.27838 -2.86052834,1.74475 -4.29277394,0.95091 z m 11.9846121,-20.3698 c -0.1591801,-0.41481 0.9719999,-1.92881 3.1800112,-4.25619 0.804959,-0.84848 0.84554,-0.85902 3.844636,-0.9988 4.490076,-0.20927 4.424015,-0.33046 1.591328,2.91928 l -2.124458,2.43724 -2.175022,0.003 c -1.196262,0.002 -2.6193964,0.0764 -3.1625207,0.16615 -0.7720053,0.12762 -1.0238275,0.0686 -1.1539745,-0.27059 z m 6.9538262,-2.51923 c 1.422427,-1.54429 1.440114,-1.49625 -0.512391,-1.39175 -1.740217,0.0931 -2.455397,0.52235 -3.658779,2.19579 l -0.5010887,0.69683 1.7762487,-0.14258 c 1.701784,-0.13661 1.82319,-0.19355 2.89601,-1.35829 z m 23.663099,-2.55915 c -2.145941,-0.57718 -4.808819,-2.0877 -6.237596,-3.53829 l -1.276934,-1.29644 0.686056,-1.17067 c 3.94716,-6.735325 12.85173,-8.222578 19.434093,-3.245918 2.630569,1.988878 2.640571,2.517138 0.09948,5.254348 -3.401576,3.66408 -8.260011,5.19252 -12.705099,3.99697 z m 6.737338,-1.73066 c 1.954261,-0.73118 3.637352,-1.92727 5.067322,-3.60107 l 1.250186,-1.46337 -1.1543,-1.024357 C 44.743568,94.852767 37.030884,95.739125 32.965166,101.44891 l -0.580569,0.81533 1.073644,0.95279 c 3.256208,2.88963 7.557086,3.78599 11.35239,2.36599 z m -4.567298,-1.1358 c -2.556785,-1.15054 -2.491005,-4.881517 0.106322,-6.030431 1.947151,-0.861324 3.979465,0.095 4.599421,2.164181 0.75525,2.52082 -2.235366,4.97791 -4.705743,3.86625 z m 104.853117,67.16935 c 13.84312,-1.43563 28.60192,-4.49476 37.66968,-7.80799 66.60835,-24.33773 40.85932,-67.368199 -45.36684,-75.814756 l -1.84439,-0.180674 4.12759,4.336563 c 2.27018,2.385109 5.66,6.046699 7.53294,8.136877 2.04156,2.27837 4.17841,4.36496 5.33571,5.21019 2.15987,1.57749 1.96741,1.52201 11.03421,3.18089 32.18637,5.8889 45.96021,17.85814 34.26354,29.77445 -5.51897,5.62262 -13.23135,8.46553 -37.3189,13.75637 -1.65829,0.36424 -4.43853,2.68049 -9.06715,7.55393 -2.05189,2.16043 -5.57623,5.80328 -7.83188,8.09523 -4.73807,4.81435 -4.89248,4.41828 1.46549,3.75892 z m 16.1414,-5.42769 c -1.55472,-0.38641 -4.40018,-1.97234 -5.86697,-3.27001 l -1.31053,-1.15942 0.52423,-1.01887 c 3.92517,-7.62883 17.24097,-9.12901 21.40827,-2.41188 2.10545,3.3937 -8.9754,9.29661 -14.755,7.86018 z m 6.15989,-1.54447 c 4.18666,-1.30304 7.86731,-5.16265 6.22557,-6.52829 -5.41427,-4.50372 -14.16039,-3.09636 -17.30804,2.78508 -1.20445,2.25054 6.98789,5.01758 11.08247,3.74321 z m -3.96784,-1.68949 c -1.64215,-1.10664 -2.02339,-2.87065 -0.96109,-4.44699 1.91083,-2.83548 6.01133,-1.63825 6.01133,1.75514 0,2.66414 -2.84285,4.17942 -5.05024,2.69185 z m 25.6216,-9.66692 c -1.09413,-0.1259 -0.92988,-0.43917 1.56923,-2.99306 l 2.29684,-2.34718 h 3.25941 c 4.0237,0 4.03337,0.0273 1.0766,3.04258 l -2.18281,2.226 -2.64584,0.0777 c -1.4552,0.0427 -2.97325,0.04 -3.37343,-0.006 z m 6.62564,-2.50599 c 1.43776,-1.46496 1.42087,-1.51133 -0.55017,-1.51133 -1.64619,0 -1.67723,0.0138 -2.96662,1.32291 l -1.30302,1.32292 h 1.85319 c 1.8333,0 1.86515,-0.0122 2.96662,-1.1345 z m 12.62279,-12.10924 c -6.04402,-3.84574 -6.29746,-12.51385 -0.47857,-16.36812 3.99858,-2.64855 9.13577,4.0967 7.76955,10.20161 -0.88617,3.95982 -5.12486,7.54479 -7.29098,6.16651 z m 2.55708,-1.73539 c 4.78633,-3.31693 4.4347,-11.52174 -0.58286,-13.60008 -1.49661,-0.61992 -4.09395,1.88192 -4.92808,4.74687 -1.32719,4.55849 2.60132,10.86958 5.51094,8.85321 z m -1.99634,-3.82192 c -3.33166,-0.96903 -2.72171,-5.80735 0.73172,-5.80421 2.37194,0.002 3.84249,1.983 2.98885,4.02604 -0.62064,1.48541 -2.17425,2.22793 -3.72057,1.77817 z m -13.17914,-20.55406 -2.29966,-0.088 -1.76995,-1.90815 c -3.36559,-3.6284 -3.32379,-3.76504 1.06793,-3.49064 l 3.08351,0.19267 1.96881,2.27944 c 2.30486,2.66852 2.45937,3.37506 0.6904,3.15701 -0.24276,-0.0299 -1.47623,-0.094 -2.74104,-0.14237 z m 0.55111,-2.67703 c -1.08593,-1.20223 -1.27074,-1.29944 -2.82751,-1.48731 -2.11726,-0.25552 -2.1232,-0.24344 -0.68693,1.39843 l 1.20298,1.37518 h 1.73667 1.73666 z m -34.10861,-2.75542 c -4.32868,-1.47596 -8.70119,-5.90777 -7.46803,-7.569327 4.93429,-6.648382 17.48678,-5.428508 21.36036,2.075847 l 0.47275,0.91586 -1.43841,1.33888 c -3.66817,3.41432 -8.70824,4.6771 -12.92667,3.23874 z m 7.37208,-1.56771 c 1.59776,-0.50954 4.78215,-2.6085 5.00009,-3.29575 0.41988,-1.32401 -4.95032,-5.117852 -8.06397,-5.696899 -3.35997,-0.624847 -10.3875,2.089918 -10.3875,4.012749 0,3.34967 8.59067,6.53005 13.45138,4.9799 z m -5.38159,-1.04861 c -2.476,-1.36606 -2.88995,-3.95198 -0.90059,-5.625921 2.83677,-2.386978 6.79707,0.802974 5.04733,4.065561 -0.81163,1.51339 -2.84505,2.27853 -4.14674,1.56036 z m -119.087391,43.1013 c -1.448046,-1.48988 -3.085883,-3.22548 -3.639638,-3.85689 -1.200272,-1.36858 -0.990015,-1.52825 -2.420517,1.83814 -1.3932,3.27861 -1.87392,2.77541 3.77134,3.94773 5.680945,1.17972 5.477149,1.35148 2.288815,-1.92898 z m 120.895631,1.52275 c 3.02901,-0.68743 3.12601,-0.7311 2.97353,-1.33864 -0.32545,-1.29666 -2.02438,-4.69663 -2.22914,-4.46104 -1.65036,1.89889 -5.59534,6.69724 -5.59534,6.80572 0,0.079 0.38695,0.0448 0.85989,-0.0759 0.47295,-0.12074 2.26892,-0.53931 3.99106,-0.93014 z M 36.977345,145.43422 c 4.431369,-10.79501 15.261144,-27.51641 23.733345,-36.6448 1.012952,-1.0914 3.551943,-4.24656 5.642203,-7.01147 10.882918,-14.395414 18.47529,-21.516608 30.352699,-28.46904 2.972961,-1.740217 2.972511,-1.542167 0.0063,-2.834176 -7.945127,-3.460715 -12.006696,-4.137886 -11.40577,-1.901645 2.278673,8.479682 -8.856861,13.647495 -12.937386,6.004022 -2.496888,-4.677068 2.768126,-14.35214 7.335107,-13.479107 1.508226,0.288316 1.303541,0.773034 -0.741871,1.756838 -5.59833,2.692688 -7.734943,9.200454 -4.103954,12.499963 5.041525,4.581274 11.841494,-2.735526 7.841271,-8.437247 -3.128241,-4.458843 11.842894,-0.423338 23.736051,6.398106 18.86636,10.821005 43.42188,36.223926 56.48181,58.430936 l 1.1308,1.9228 1.29005,-1.83106 c 1.63984,-2.32754 1.81224,-1.67906 -1.96777,-7.40144 C 141.36457,91.123618 112.52817,66.852248 87.3015,60.410425 83.203344,59.363929 82.668968,59.013251 84.198552,58.37415 c 0.528472,-0.22081 1.000108,-0.546538 1.048082,-0.72384 0.04797,-0.177303 0.516141,-2.11285 1.040373,-4.301217 6.92953,-28.926796 28.404423,-28.264817 34.455893,1.062129 0.85162,4.127177 2.50501,16.038068 2.92446,21.06753 0.16721,2.005101 0.2103,2.112041 1.12821,2.800299 1.56755,1.175357 5.61146,4.601745 7.203,6.10307 l 1.48614,1.401896 3.09687,0.283049 c 3.76995,0.344566 3.48651,0.66911 3.09319,-3.541807 C 136.25824,45.947067 127.80114,22.656675 114.62912,13.550862 92.426612,-1.7977171 70.761163,30.132401 66.458806,84.543324 l -0.185387,2.344548 3.871337,-0.193528 c 5.224589,-0.261177 5.217645,-0.298334 0.783891,4.194261 C 53.708408,108.3374 38.892044,129.25767 32.347326,145.36432 l -0.618249,1.52152 1.502091,0.4179 c 0.82615,0.22985 1.621153,0.46075 1.766674,0.51312 0.71065,0.25574 1.077903,-0.18631 1.979503,-2.38264 z M 127.85407,79.970738 c -1.96988,-1.127152 -3.18321,-2.588139 -3.41102,-4.107255 -0.24915,-1.661474 -0.0872,-1.731283 0.74038,-0.319129 0.77119,1.315926 1.87454,2.332564 3.34655,3.083527 l 0.9896,0.504855 1.16309,-0.737607 c 5.06652,-3.213098 5.43565,-10.596174 0.71628,-14.326626 -2.68823,-2.124918 -5.87376,-0.287448 -7.10105,4.096007 -0.4587,1.638338 -0.79693,1.510171 -0.79693,-0.301992 0,-2.575356 1.36064,-4.554191 4.3266,-6.292357 l 1.21753,-0.713522 1.24393,0.616901 c 7.44933,3.694362 8.0602,14.235495 1.06041,18.298482 -1.75131,1.01654 -2.03764,1.032818 -3.49537,0.198716 z M 76.719942,73.857617 c -2.402423,-1.464717 -1.883115,-5.018509 0.84335,-5.771322 2.029114,-0.560265 3.830389,0.626181 4.061329,2.675077 0.313645,2.782649 -2.502803,4.560628 -4.904679,3.096245 z m 51.124218,0.159868 c -1.93028,-0.840443 -2.56695,-3.145797 -1.36242,-4.933208 1.85784,-2.756848 6.27965,-1.452157 6.27965,1.852864 0,2.599849 -2.46879,4.146395 -4.91723,3.080344 z M 80.809914,46.54617 c -0.09177,-0.763984 -0.167881,-2.342898 -0.169146,-3.508696 l -0.0023,-2.119635 2.009002,-2.325976 c 2.649939,-3.068038 2.697074,-3.031578 3.107536,2.403699 l 0.145287,1.923872 -2.14621,2.507899 c -2.492427,2.912463 -2.718414,2.998343 -2.944169,1.118837 z m 2.458215,-2.645833 c 1.045371,-1.107629 1.061222,-1.154216 1.057725,-3.108854 l -0.0036,-1.984375 -1.175018,1.322916 c -1.141596,1.285288 -1.175172,1.373715 -1.180459,3.108854 -0.0064,2.110326 -0.04677,2.089819 1.301302,0.661459 z m 40.252341,1.59771 -2.1682,-2.457606 0.16592,-3.175 c 0.21825,-4.176432 0.2549,-4.192953 2.93421,-1.322917 l 2.22302,2.38125 -0.0259,1.984375 c -0.0731,5.606789 -0.30103,5.795408 -3.12906,2.589898 z m 1.80128,-2.911795 c 0.0258,-0.809174 -0.17388,-1.21439 -1.12711,-2.287676 l -1.15842,-1.304321 -0.1645,1.200125 c -0.27414,2.000076 -0.20318,2.267774 0.96138,3.626602 l 1.12246,1.309708 0.16745,-0.780541 c 0.0921,-0.429298 0.18153,-1.223051 0.19874,-1.763897 z M 99.982773,29.789962 c -6.719064,-1.806982 -9.983035,-6.311189 -6.842742,-9.442828 6.813192,-6.79442 17.654079,-5.925778 22.427009,1.796999 l 0.56545,0.914909 -0.53836,0.75605 c -3.47749,4.883689 -10.15948,7.441061 -15.611357,5.97487 z m 6.602987,-1.591424 c 2.27784,-0.66906 4.28284,-1.868314 6.06279,-3.626331 l 1.64892,-1.628606 -1.84117,-1.755722 c -5.36285,-5.113976 -12.18408,-5.201737 -17.613547,-0.226614 -2.142736,1.963429 -2.140844,1.93493 -0.247514,3.727791 3.616455,3.424548 7.955751,4.694606 11.990521,3.509482 z m -5.0452,-2.006992 c -3.368147,-2.270131 -1.693047,-7.353239 2.31714,-7.031382 4.65335,0.373479 4.66857,7.168992 0.0169,7.542485 -1.15886,0.09305 -1.57184,0.0026 -2.33403,-0.511103 z m 71.65979,121.242764 c 1.06814,-0.27742 1.99492,-0.55724 2.05951,-0.62183 0.10102,-0.10102 -1.98704,-4.85134 -3.48427,-7.9267 -0.62106,-1.27569 -0.58188,-1.28839 -2.18077,0.70685 l -1.36153,1.69905 1.3802,3.32161 c 0.75911,1.82689 1.43973,3.32246 1.51249,3.32351 0.0728,0.001 1.00622,-0.22508 2.07437,-0.50249 z m -142.620316,-2.7277 c 0.386075,-0.9095 1.501322,-3.28246 2.478327,-5.27324 l 1.776372,-3.61959 -0.828561,-1.14291 c -3.368023,-4.6458 -7.171734,-11.05476 -9.235366,-15.56088 -1.504556,-3.28533 -1.237623,-3.13473 -3.77193,-2.128 -19.1982208,7.62635 -18.3530999,20.10388 1.846063,27.25563 2.33057,0.82516 6.389879,2.08113 6.814896,2.10856 0.120034,0.008 0.534124,-0.73006 0.920199,-1.63957 z m 151.044986,0.30338 c 19.16092,-6.18169 23.75458,-16.34065 11.19679,-24.76187 -2.73693,-1.83537 -7.8322,-4.31495 -8.86678,-4.31495 -0.16989,0 -1.32961,2.05383 -2.57717,4.56407 -2.22884,4.4847 -5.59223,10.33921 -7.84379,13.65338 l -1.14203,1.68098 1.71674,3.61069 c 0.94421,1.98587 2.04482,4.35482 2.44581,5.26432 0.40099,0.90951 0.76418,1.65365 0.80708,1.65365 0.0429,0 1.96142,-0.60762 4.26335,-1.35027 z M 36.275462,133.06495 c 0.200077,-0.32743 0.669252,-1.13554 1.04261,-1.79582 l 0.678834,-1.2005 -2.50135,-3.82658 c -1.375742,-2.10462 -3.394506,-5.60712 -4.486141,-7.78333 -1.091636,-2.17621 -2.015636,-3.98759 -2.053333,-4.02529 -0.176871,-0.17687 -3.615532,1.02874 -3.615532,1.26763 0,1.54206 9.471281,17.9592 10.360919,17.9592 0.115619,0 0.373916,-0.26789 0.573993,-0.59531 z M 49.45525,112.89047 c 2.756591,-3.699 2.669188,-3.41749 0.994529,-3.2033 -3.684233,0.47121 -18.163821,3.59475 -18.962667,4.09064 -0.845463,0.52482 4.466087,10.62816 7.286252,13.85951 0.368762,0.42253 0.733998,-0.0442 4.555523,-5.82083 2.28504,-3.4541 5.041903,-7.47082 6.126363,-8.92602 z m 120.7484,11.50937 c 1.69245,-2.7898 5.42024,-10.17467 5.42024,-10.73765 0,-0.71082 -20.21828,-5.11559 -20.80194,-4.53193 -0.0631,0.0631 0.51894,0.93497 1.29345,1.93747 2.67842,3.46689 6.51049,8.80048 9.19503,12.79791 2.4173,3.59949 2.72998,3.96361 3.03182,3.53057 0.1851,-0.26555 1.02273,-1.61392 1.8614,-2.99637 z M 70.848885,100.70682 c 1.236927,-1.007337 3.677708,-3.088775 5.423958,-4.625434 C 88.292097,85.504735 95.666888,79.831102 102.57445,75.846827 l 2.1987,-1.268207 -1.55015,-0.882966 c -1.90276,-1.083811 -1.66864,-1.088465 -3.773684,0.07502 -11.149283,6.162339 -20.41147,14.391496 -29.28963,26.022899 -2.476008,3.243867 -2.820776,3.770347 -2.068261,3.158337 0.279676,-0.22746 1.520533,-1.23775 2.75746,-2.24508 z m -45.4177,-6.269988 1.810427,-0.59639 1.261745,-3.836459 c 5.422248,-16.48686 19.12428,-27.965589 36.899958,-30.91254 l 2.888806,-0.478922 0.46207,-1.965206 c 0.564901,-2.402554 0.735514,-2.258267 -2.207916,-1.867239 -15.119794,2.008628 -29.760794,11.558638 -37.475311,24.44434 -3.296978,5.507006 -7.337514,16.416379 -5.909971,15.956817 0.252871,-0.08141 1.274458,-0.416386 2.270192,-0.744401 z M 184.23546,94.303463 C 180.66433,74.461628 160.65446,56.810712 139.2878,54.654664 l -1.80797,-0.182437 0.17509,1.167566 c 0.0963,0.642161 0.25961,1.580812 0.36291,2.085891 l 0.18781,0.918325 2.18769,0.310936 c 19.31182,2.744791 34.27247,15.762416 38.92388,33.868617 0.2777,1.080973 0.31528,1.109499 2.19721,1.667617 1.05307,0.312308 2.03374,0.611676 2.17926,0.665263 0.62026,0.228407 0.71076,0.08592 0.54178,-0.852979 z M 33.843319,92.266355 c 7.756896,-1.862763 15.744901,-3.291418 25.1687,-4.501422 2.875818,-0.369251 5.26926,-0.671366 5.31876,-0.671366 0.0495,0 0.170151,-1.16086 0.268112,-2.579688 0.379881,-5.502049 2.52866,-21.039015 3.239276,-23.421923 0.411184,-1.378819 -10.039895,1.430067 -15.489037,4.162914 -11.252588,5.643384 -20.38011,16.55799 -22.632908,27.064218 -0.225833,1.053203 -0.492411,1.056609 4.127097,-0.05273 z M 177.03512,91.789921 c -4.80608,-16.190473 -18.68552,-28.25251 -35.3814,-30.748496 -3.11632,-0.465881 -3.06812,-0.485227 -2.7665,1.110234 0.50673,2.680388 2.08493,14.203232 2.61889,19.121074 0.66543,6.128853 -0.078,5.221126 4.7873,5.845415 8.97678,1.15186 20.12239,3.282361 27.34611,5.227253 4.07591,1.097386 3.89503,1.126976 3.3956,-0.55548 z M 27.833764,76.256868 c 0.570903,-0.132408 1.133766,-0.411856 1.250807,-0.620997 0.778294,-1.390734 3.163467,-4.208755 5.866269,-6.930846 l 3.152501,-3.175 -0.438554,-2.248959 c -0.97145,-4.981708 -3.597357,-8.641623 -8.70814,-12.137156 -1.47953,-1.011929 -3.284987,-2.266914 -4.012126,-2.788857 -1.786631,-1.28245 -1.822869,-1.257615 -1.639256,1.123426 0.35559,4.6112 3.080471,9.171162 7.43349,12.439602 0.422398,0.317155 0.712258,0.632384 0.644135,0.700507 C 31.176478,62.825 27.657666,61.022964 26.592775,60.165499 26.044571,59.724077 24.973008,59.216832 24.211524,59.038288 22.402497,58.614126 16.172946,56.647061 13.891628,55.779639 12.906231,55.404964 9.8701373,54.568774 7.1447525,53.92144 4.4193679,53.274105 1.8522942,52.659057 1.4401442,52.554665 L 0.69078073,52.364861 1.346911,53.659672 c 3.4432209,6.794869 10.809187,11.707192 20.971735,13.985936 4.727964,1.06015 4.262724,1.307592 -3.251928,1.729572 -2.879549,0.161699 -5.652261,0.357006 -6.161584,0.434015 l -0.926042,0.140018 2.003036,1.893906 c 3.823112,3.61482 9.498693,5.423313 13.851636,4.413749 z M 186.73639,75.740342 c 2.77042,-0.868301 8.82344,-5.064945 8.18882,-5.677417 -0.0655,-0.06318 -2.26215,-0.251223 -4.88153,-0.417879 -9.57504,-0.609203 -10.29712,-0.852326 -5.57197,-1.87607 9.91816,-2.148851 17.16893,-6.832458 21.03304,-13.586216 1.04737,-1.830612 1.04758,-1.830298 -0.89789,-1.322264 -0.85464,0.223177 -3.52848,0.867801 -5.94187,1.432498 -2.41338,0.564697 -5.34047,1.393243 -6.50464,1.841214 -1.16417,0.44797 -4.07492,1.402523 -6.46835,2.121228 -2.93899,0.882532 -4.71435,1.56719 -5.46887,2.109047 -2.16259,1.553051 -5.89889,3.040083 -3.91203,1.556966 4.4837,-3.346894 7.23916,-8.18681 7.24715,-12.729445 0.004,-2.137122 0.1746,-2.106171 -2.18223,-0.395361 -1.05362,0.764817 -2.63004,1.862662 -3.50317,2.439656 -4.50061,2.97417 -7.47133,7.133193 -8.4599,11.843925 l -0.47062,2.242594 3.01846,3.01402 c 1.66015,1.657711 3.77142,4.026051 4.6917,5.262979 2.28668,3.073463 5.16073,3.683541 10.0839,2.140525 z m -64.98453,-0.354588 c -0.0485,-0.327422 -0.27841,-2.440781 -0.51084,-4.696354 -0.57922,-5.620959 -0.21834,-5.181318 -3.22567,-3.929702 -1.40299,0.583909 -3.26035,1.419786 -4.12747,1.857504 l -1.57657,0.795851 1.22355,0.836611 c 0.67295,0.460136 2.80367,1.937299 4.73493,3.282584 1.93127,1.345285 3.52465,2.446613 3.54085,2.447396 0.0162,7.82e-4 -0.0102,-0.266468 -0.0588,-0.59389 z m -4.54273,-10.271735 c 3.39248,-1.346524 3.23388,-1.157986 2.85645,-3.395629 -0.38321,-2.271923 -0.0982,-2.246666 -4.66643,-0.4136 -8.60543,3.45309 -9.63358,4.294548 -7.0764,5.791464 l 2.0197,1.182284 2.07335,-1.042462 c 1.14035,-0.573354 3.29734,-1.52828 4.79333,-2.122057 z m -8.39253,-2.772313 c 2.61937,-1.317014 6.01266,-2.853848 7.54062,-3.415188 1.52797,-0.561339 2.86096,-1.091127 2.96219,-1.177305 0.26725,-0.227515 -1.01112,-6.045734 -1.94662,-8.859603 -7.3473,-22.099651 -23.906688,-18.927578 -29.481804,5.647457 -0.925751,4.080696 -1.110519,3.708095 2.34228,4.723403 3.348212,0.984554 8.59908,3.044027 11.571874,4.53867 1.09141,0.548731 2.04391,0.984067 2.11667,0.967414 0.0728,-0.01665 2.27541,-1.107835 4.89479,-2.424848 z m -64.88907,-0.969009 2.050521,-1.319593 v -1.650987 c 0,-7.163531 -3.522058,-11.695908 -15.742709,-20.258583 C 16.384532,28.438651 7.0921828,19.984136 -2.4276902,8.4255219 -4.5138863,5.8925547 -4.6843792,6.0654984 -4.4695051,10.496688 c 0.596102,12.292974 7.391371,22.191385 21.8777061,31.868428 3.902118,2.606662 4.559797,2.928816 4.889641,2.395117 0.272346,-0.440666 0.495961,-0.328381 2.803923,1.407948 1.222738,0.919892 3.354254,2.429909 4.736702,3.355593 3.022455,2.023829 5.249773,4.085874 6.677849,6.182334 1.533288,2.250916 2.143428,3.886953 3.003706,8.054172 l 0.126239,0.611506 1.115374,-0.839748 c 0.613456,-0.461862 2.038109,-1.433565 3.165895,-2.159341 z m 123.95927,0.677018 c 0.91603,-5.193351 3.67566,-8.69819 10.65998,-13.538564 1.95767,-1.356735 4.06287,-2.836014 4.67821,-3.287287 1.05715,-0.775279 1.14592,-0.795958 1.61082,-0.375235 0.46763,0.423201 0.68748,0.314871 4.43744,-2.186487 15.2218,-10.153491 22.33398,-20.828783 22.33398,-33.5230284 0,-2.7772125 -0.13238,-3.1750026 -0.73531,-2.2095578 -4.49888,7.2038472 -20.19964,21.5846112 -34.45428,31.5576292 -11.89737,8.323798 -15.39257,12.828085 -15.33027,19.756241 l 0.0156,1.730349 3.09329,2.032811 c 3.45833,2.272697 3.29764,2.270819 3.69058,0.04313 z M 23.261792,55.938879 c -1.230728,-2.452484 -1.711836,-4.439956 -1.729597,-7.145006 -0.0133,-2.026207 -0.0908,-2.472369 -0.449221,-2.586126 C 20.185666,45.922952 14.235621,42.247853 11.05305,40.012674 7.6562556,37.627041 6.5587531,36.965685 -0.72090893,32.917672 -5.5596959,30.22696 -5.4587536,30.208078 -4.5905094,33.641518 c 2.5995655,10.279887 11.087517,18.070197 24.6393934,22.614231 1.964531,0.65872 3.662886,1.199205 3.774121,1.201078 0.111235,0.0019 -0.141311,-0.681204 -0.561213,-1.517948 z m 163.785438,0.307995 c 14.13057,-4.863105 22.18111,-12.420379 24.70466,-23.19099 0.63422,-2.706883 0.80668,-2.710543 -4.28802,0.09101 -6.65206,3.65793 -7.83662,4.371749 -11.80781,7.115426 -2.00095,1.382448 -5.09434,3.356677 -6.87419,4.387175 l -3.2361,1.873634 -0.17155,2.888866 c -0.17491,2.94548 -0.73937,5.097661 -1.8152,6.921055 -0.85745,1.45327 -0.99475,1.456662 3.48821,-0.08617 z"
       id="path1" /><path
       style="fill:#ffffff;stroke:none;stroke-width:0.097186"
       d="m 97.655838,153.00543 c -12.04627,-1.89528 -23.602187,-8.23334 -35.138375,-19.27231 l -4.419809,-4.22931 4.808553,-4.67325 c 10.281764,-9.99247 19.902479,-15.76266 30.924415,-18.54747 2.922413,-0.73838 4.433075,-0.86306 10.231658,-0.84448 6.06664,0.0195 7.21204,0.13161 10.58188,1.03622 10.80748,2.90122 19.90226,8.42984 30.12895,18.31508 l 4.87529,4.71252 -4.03619,3.83825 c -11.53925,10.97337 -20.63054,16.32104 -32.22009,18.95247 -3.84649,0.87336 -12.28482,1.2553 -15.736282,0.71228 z m 11.848842,-1.3376 c 8.05898,-2.14184 14.84842,-8.86806 16.89931,-16.74194 0.76817,-2.94922 0.75928,-8.16535 -0.0191,-11.19711 -1.10501,-4.30405 -2.78561,-7.18137 -6.1731,-10.56886 -4.82372,-4.82372 -9.59178,-6.79254 -16.53827,-6.82896 -4.402704,-0.0231 -6.609942,0.45647 -10.463279,2.27327 -5.498658,2.59255 -10.257649,8.61948 -11.886109,15.05292 -0.76154,3.00856 -0.749343,8.60461 0.02527,11.59395 2.056194,7.93511 8.351761,14.18337 16.492961,16.36903 2.784317,0.7475 8.934577,0.77266 11.662307,0.0477 z"
       id="path2" /><path
       style="fill:#ffffff;stroke:none;stroke-width:0.097186"
       d="m 100.56358,149.2637 c -4.245192,-0.67499 -9.589153,-3.8227 -12.528272,-7.37944 -10.735863,-12.99188 -1.176475,-32.78948 15.832602,-32.78948 11.7201,0 21.23885,10.15998 20.27094,21.63649 -0.97749,11.59017 -12.12482,20.35304 -23.57527,18.53243 z m 3.64242,-2.94673 c 0.30504,-1.13827 0.31042,-3.94498 0.009,-4.73031 -0.54908,-1.43089 -0.93027,-0.40853 -0.93027,2.49503 0,2.99796 0.43437,4.05193 0.92121,2.23528 z m -4.15612,-1.53058 c 0.86616,-2.59739 1.06418,-4.32209 0.47363,-4.12524 -0.527467,0.17582 -1.833857,3.72347 -1.879898,5.1051 -0.03892,1.16801 0.910651,0.50637 1.406268,-0.97986 z m 8.58221,0.16997 c -0.10862,-0.80178 -0.51417,-2.15752 -0.90122,-3.01276 -0.69472,-1.53505 -0.70564,-1.54111 -0.8526,-0.47328 -0.17776,1.29157 0.96185,4.94383 1.54261,4.94383 0.24821,0 0.33114,-0.57243 0.21121,-1.45779 z m -12.05313,-2.64598 c 1.378379,-2.08691 1.761379,-3.79083 0.643567,-2.86312 -0.654555,0.54323 -2.868982,4.21239 -2.875195,4.76401 -0.0088,0.77866 1.06712,-0.13777 2.231628,-1.90089 z m 16.42442,1.75583 c 0,-1.12819 -2.86166,-5.41605 -3.31323,-4.96448 -0.37253,0.37252 0.0547,1.48353 1.36503,3.54969 1.08165,1.70558 1.9482,2.33487 1.9482,1.41479 z m -19.806655,-3.74124 c 1.977607,-1.78665 2.60984,-2.85192 1.692603,-2.85192 -0.724048,0 -4.044333,3.14949 -4.044333,3.83629 0,0.78141 0.74014,0.47161 2.35173,-0.98437 z m 23.694085,1.03552 c 0,-0.49688 -2.79712,-3.30392 -3.85801,-3.87169 -1.43849,-0.76986 -0.93402,0.41161 1.02501,2.40055 1.73572,1.76222 2.833,2.33202 2.833,1.47114 z m -8.68698,-3.63168 c 1.6061,-0.8425 3.89073,-3.33594 4.58619,-5.00538 0.33835,-0.81217 0.6021,-2.57754 0.6021,-4.02996 0,-2.50302 -0.0276,-2.57594 -0.87467,-2.3086 -2.97941,0.94033 -4.59193,0.3478 -5.35628,-1.96821 -0.37796,-1.14524 -0.32659,-1.5124 0.36911,-2.63806 0.4445,-0.71921 0.80817,-1.40581 0.80817,-1.52577 0,-0.45356 -4.46112,-1.12051 -5.92702,-0.88611 -3.059794,0.48928 -5.95626,2.66953 -7.528036,5.66654 -0.979279,1.86726 -0.979279,6.29636 0,8.16362 0.909225,1.73368 2.839042,3.78919 4.252092,4.52905 2.449764,1.28266 6.626094,1.28399 9.068344,0.003 z m 11.20631,-0.2679 c -0.44847,-0.72563 -3.77179,-2.70906 -4.53915,-2.70906 -1.19799,0 -0.78188,0.56559 1.33952,1.8207 2.79832,1.65561 3.85516,1.94904 3.19963,0.88836 z m -28.375799,-0.58858 c 0.928619,-0.54421 1.92191,-1.27296 2.207313,-1.61946 0.46405,-0.56338 0.398375,-0.59995 -0.621141,-0.3459 -1.428218,0.35589 -4.496723,2.13216 -4.496723,2.60302 0,0.63174 1.188969,0.37125 2.910551,-0.63766 z m -0.886063,-3.70756 c 1.415423,-0.37097 2.15374,-0.97291 1.722393,-1.40426 -0.228489,-0.22849 -2.94903,0.37478 -4.710787,1.0446 -0.582316,0.22139 -0.914001,0.57249 -0.766422,0.81128 0.253754,0.41058 0.644346,0.36361 3.754816,-0.45162 z m 30.911242,0.16015 c 0.13148,-0.39445 -3.7494,-1.68302 -5.06888,-1.68302 -1.44439,0 -0.51741,0.79275 1.77484,1.51784 2.54955,0.80647 3.07155,0.83265 3.29404,0.16518 z m -29.63141,-4.20985 c 0,-0.45766 -4.686914,-0.74887 -5.595837,-0.34768 -0.475414,0.20983 -0.34627,0.34458 0.542171,0.56569 1.616525,0.40231 5.053666,0.25404 5.053666,-0.21801 z m 29.64169,0.3381 c 1.77203,-0.47489 0.79432,-0.92122 -2.01796,-0.92122 -2.66465,0 -4.0214,0.43319 -2.84375,0.90797 0.69825,0.28151 3.82887,0.29004 4.86171,0.0133 z m -28.669833,-3.60021 c 0,-0.43219 -2.48589,-1.44488 -4.452411,-1.8138 -2.173697,-0.40779 -1.634106,0.57349 0.78322,1.42433 2.138788,0.75281 3.669191,0.91525 3.669191,0.38947 z m 25.723153,-0.0541 c 0.78467,-0.21794 1.83428,-0.73595 2.33246,-1.15113 l 0.90578,-0.75487 -0.86009,-0.0129 c -0.47305,-0.007 -1.82879,0.3495 -3.01276,0.79249 -3.19859,1.19674 -2.71419,2.05657 0.63461,1.12644 z m -24.64818,-3.19528 c -0.198398,-0.6178 -3.76165,-2.6029 -4.693793,-2.61494 -1.059778,-0.0137 -0.439296,0.65465 1.800236,1.93908 2.147175,1.23147 3.146978,1.46499 2.893557,0.67586 z m 22.94543,-0.28281 c 0.79326,-0.4228 1.74843,-1.01062 2.1226,-1.30627 0.67541,-0.53367 0.93024,-1.42368 0.40764,-1.42368 -0.66153,0 -4.39226,2.54622 -4.39226,2.99771 0,0.66144 0.16249,0.63808 1.86202,-0.26776 z m -20.910453,-2.11615 c 0,-0.60526 -3.341476,-4.1125 -3.918125,-4.1125 -0.867217,0 -0.21073,1.19765 1.569008,2.86238 2.085581,1.95082 2.349117,2.09106 2.349117,1.25012 z m 19.327763,-1.4752 c 2.08371,-2.05782 2.43099,-2.6373 1.58055,-2.6373 -0.63562,0 -4.19234,3.533 -4.19234,4.16438 0,0.85528 0.48894,0.5694 2.61179,-1.52708 z m -16.606561,-0.41418 c 0,-0.69232 -2.70025,-4.94432 -3.139911,-4.94432 -0.527854,0 -0.43952,0.658 0.276577,2.06021 1.407684,2.75643 2.863334,4.22264 2.863334,2.88411 z m 13.508841,-1.84374 c 1.3059,-2.16476 1.60287,-3.27852 0.80308,-3.01193 -0.45471,0.15157 -3.02475,4.46749 -3.03372,5.0946 -0.012,0.83801 1.08863,-0.1896 2.23064,-2.08267 z m -11.34865,-2.49898 c -0.33849,-1.16435 -0.815597,-2.24071 -1.060234,-2.39191 -0.626705,-0.38732 -0.14044,2.9073 0.707734,4.79516 0.58007,1.2911 0.67694,1.36135 0.81322,0.58973 0.0851,-0.48178 -0.12223,-1.82862 -0.46072,-2.99298 z m 3.88914,-1.1615 c -0.14744,-0.98318 -0.43178,-1.68643 -0.63186,-1.56277 -0.43091,0.26631 -0.49501,5.74732 -0.0722,6.17652 0.49466,0.5022 0.98725,-2.72558 0.7041,-4.61375 z m 3.86095,2.51169 c 0.35194,-1.05957 0.57289,-2.41326 0.49101,-3.00819 -0.14704,-1.06842 -0.15756,-1.06261 -0.85727,0.47328 -0.84227,1.84884 -1.31859,5.10724 -0.68976,4.7186 0.22888,-0.14145 0.70409,-1.12411 1.05602,-2.18369 z"
       id="path3" /><path
       style="fill:#ffffff;stroke:none;stroke-width:0.097186"
       d="m 33.408148,147.14547 c -0.694878,-0.20064 -1.263415,-0.45509 -1.263415,-0.56544 0,-0.70301 4.189206,-9.37544 6.392302,-13.23324 7.495548,-13.12531 16.887285,-25.53081 29.924549,-39.527194 3.34459,-3.590645 5.977681,-6.695734 5.851316,-6.900196 -0.126368,-0.204467 -1.96441,-0.371761 -4.084532,-0.371761 h -3.854775 l 0.171458,-1.069043 c 0.0943,-0.587973 0.363196,-3.168259 0.597545,-5.733966 1.313389,-14.379267 4.883087,-30.536824 9.169458,-41.503779 5.883969,-15.054533 14.169438,-25.162406 22.669922,-27.656226 9.811774,-2.8785125 20.836074,4.492857 27.962724,18.697202 5.75652,11.473494 10.06204,29.282987 12.28626,50.821264 0.3074,2.976671 0.46924,5.557205 0.35965,5.734518 -0.10958,0.177313 -1.45704,0.206769 -2.99435,0.06545 -2.73826,-0.251708 -2.84931,-0.305001 -5.45986,-2.620176 l -2.66474,-2.363243 1.20166,-0.245768 c 2.40657,-0.492194 5.34643,-3.461782 6.26611,-6.329466 0.66648,-2.078191 0.31522,-6.261288 -0.69128,-8.232315 -0.87773,-1.718876 -3.247,-4.048207 -5.08366,-4.997976 -1.11219,-0.575141 -1.22751,-0.550045 -3.02563,0.65831 -2.57058,1.727451 -3.63941,3.4262 -3.63941,5.784273 0,1.037426 0.13388,1.886228 0.2975,1.886228 0.16362,0 0.59424,-0.835509 0.95693,-1.856687 0.83298,-2.345299 2.61101,-4.104045 4.14904,-4.104045 4.15054,0 6.98046,6.964013 4.62139,11.372561 -0.50586,0.94532 -1.57573,2.249708 -2.3775,2.898633 l -1.45776,1.179867 -1.4168,-0.760543 c -0.77924,-0.418298 -1.86577,-1.409909 -2.4145,-2.203579 -1.23358,-1.784213 -1.56914,-1.827464 -1.62235,-0.209124 -0.0229,0.694878 -0.45892,-1.972874 -0.96904,-5.928339 -2.0077,-15.567676 -3.28392,-21.12809 -6.21526,-27.079633 -2.20596,-4.478784 -5.50252,-8.198183 -8.61654,-9.721728 -2.92199,-1.429599 -6.7521,-1.489824 -9.534818,-0.149924 -6.215866,2.992996 -10.144093,9.758106 -13.509254,23.265358 -0.289031,1.160132 -0.706424,1.801807 -1.368139,2.103305 -1.793695,0.817258 -1.223434,1.154475 4.851693,2.868985 10.756451,3.035663 23.106318,9.865355 34.986978,19.348418 5.96009,4.757301 19.5096,18.192028 24.75621,24.546529 4.88813,5.92029 9.66689,12.31513 13.67792,18.30353 4.37333,6.5293 4.32071,6.37966 2.91537,8.29062 l -1.1535,1.56851 -2.9473,-4.76876 C 149.36333,109.40114 127.84948,86.916942 110.7084,75.732338 102.77892,70.558326 91.030952,65.595825 85.192638,64.954129 c -3.204131,-0.352177 -3.523705,0.07753 -2.268927,3.050852 1.267908,3.004431 0.987875,4.56234 -1.21926,6.78317 -1.370481,1.378982 -1.891467,1.651918 -3.15091,1.650707 -4.143613,-0.004 -6.381163,-4.182671 -4.47466,-8.356532 0.759989,-1.663821 3.381378,-4.232658 5.455007,-5.345654 1.53965,-0.826381 1.398606,-1.607691 -0.320654,-1.776281 -2.8116,-0.275706 -6.097386,3.44088 -7.280446,8.234974 -0.764847,3.099382 -0.389949,4.931188 1.434499,7.009114 1.541753,1.755963 3.035512,2.312932 5.62682,2.098037 2.598943,-0.215524 4.59986,-1.63354 5.950764,-4.217201 0.738765,-1.41292 0.868707,-2.137754 0.714857,-3.987544 -0.22416,-2.695101 0.07245,-2.925214 2.922545,-2.267331 2.853378,0.658641 10.07823,3.564692 9.836147,3.956394 -0.11498,0.186037 -1.708597,1.244018 -3.541376,2.351069 -8.301479,5.014333 -17.27713,13.041223 -23.874457,21.350838 -6.231798,7.849229 -10.520839,13.151719 -13.206677,16.327239 -6.741009,7.97006 -14.829348,20.50125 -19.508806,30.22481 -1.466257,3.04678 -2.879587,5.52382 -3.140731,5.50453 -0.261144,-0.0193 -1.043345,-0.19922 -1.738225,-0.39985 z M 80.137133,74.255114 c 1.034772,-0.397082 1.864715,-2.418832 1.591276,-3.876379 -0.292127,-1.557155 -1.485416,-2.490779 -3.183538,-2.490779 -1.775767,0 -2.423975,0.334229 -3.069622,1.582777 -0.843532,1.631212 -0.698778,2.623166 0.567592,3.889533 1.121669,1.121672 2.638996,1.453298 4.094292,0.894848 z M 131.8751,73.542403 c 1.326,-1.325996 1.326,-3.763005 0,-5.089001 -2.17606,-2.176071 -6.04319,-0.667142 -6.04319,2.358017 0,2.540177 1.11151,3.60867 3.80792,3.660531 0.86475,0.01664 1.59118,-0.285451 2.23527,-0.929547 z M 84.004484,45.494721 c 2.172533,-2.544948 2.189697,-2.584747 1.969889,-4.567735 -0.421317,-3.800872 -0.604448,-4.527251 -1.141426,-4.527251 -0.29392,0 -1.439947,1.005874 -2.546728,2.235274 l -2.012323,2.235276 0.186611,3.171003 c 0.184719,3.138831 0.411096,4.020751 1.032071,4.020751 0.176154,0 1.306512,-1.155293 2.511906,-2.567318 z m 42.813396,-1.16213 0.27828,-3.340706 -2.27211,-2.296075 c -1.24967,-1.26284 -2.4719,-2.296075 -2.71607,-2.296075 -0.24527,0 -0.55366,0.913373 -0.68909,2.040903 -0.49976,4.160681 -0.39405,4.588383 1.72952,6.997382 2.82305,3.202514 3.32317,3.051858 3.66947,-1.105429 z M 110.01997,28.683983 c 1.32016,-0.651718 3.25389,-2.053986 4.29718,-3.116151 2.3448,-2.387233 2.26284,-3.135644 -0.6639,-6.062388 -2.68977,-2.689767 -5.50131,-3.77889 -9.78534,-3.790604 -3.68538,-0.01008 -6.316286,0.89075 -9.411749,3.222595 -2.739629,2.063791 -3.328977,3.841013 -2.036398,6.140851 2.787563,4.959799 11.317437,6.707287 17.600207,3.605697 z"
       id="path4" /><path
       style="fill:#ffffff;stroke:none;stroke-width:0.097186"
       d="m 70.241592,100.28932 c 0,-0.584327 6.307503,-7.955995 9.782916,-11.433434 6.00933,-6.012834 13.743363,-11.906285 19.316988,-14.71984 l 2.265864,-1.143804 1.2943,0.787111 1.2943,0.787112 -1.33026,0.80197 c -7.326632,4.416994 -14.188558,9.645124 -25.481482,19.414445 -6.320378,5.46765 -7.142626,6.10155 -7.142626,5.50644 z"
       id="path5" /><path
       style="fill:#ffffff;stroke:none;stroke-width:0.367317"
       d=""
       id="path6"
       transform="matrix(0.26458333,0,0,0.26458333,-25.864517,-1.4599091)" /><path
       style="fill:#ffffff;stroke:none;stroke-width:0.097186"
       d="m 23.203634,94.138392 c 0,-1.063635 1.916578,-6.345414 3.671967,-10.119344 2.357816,-5.069094 4.958038,-8.798808 9.218181,-13.222398 6.150131,-6.386092 13.12018,-10.81931 21.319276,-13.55988 3.870348,-1.293675 10.80454,-2.775947 11.18875,-2.391738 0.09816,0.09816 0.06264,0.950936 -0.07894,1.895057 l -0.257418,1.716585 -2.996549,0.481854 c -9.724292,1.5637 -18.896383,6.124844 -25.632228,12.746529 -5.143296,5.056124 -8.507467,10.416947 -10.99313,17.517597 -1.50862,4.309594 -1.825474,4.695798 -4.370861,5.327554 -0.849265,0.210783 -1.069044,0.130234 -1.069044,-0.391816 z"
       id="path7" /><path
       style="fill:#ffffff;stroke:none;stroke-width:0.097186"
       d="M 39.009745,60.920381 C 38.136739,57.531476 36.021781,54.20846 33.276092,51.911708 29.12122,48.43617 23.062842,44.405423 22.112109,44.48411 21.198244,44.559744 16.023819,41.349086 12.318816,38.407512 9.2054686,35.935679 4.139111,30.828901 2.1736431,28.181401 -0.11318606,25.101022 -2.5210266,20.063355 -3.3744018,16.573819 -4.1333538,13.470388 -4.6530362,7.2439738 -4.1531097,7.2439738 c 0.1973085,0 2.2607786,2.1912778 4.58548856,4.8695062 C 8.44893,21.349107 16.459553,28.459561 29.617902,38.019368 42.14838,47.123017 45.178672,50.738024 45.615816,57.104195 l 0.193265,2.814519 -2.653183,1.749345 c -1.459249,0.962142 -2.831785,1.798191 -3.05008,1.857891 -0.2183,0.0597 -0.711528,-1.112806 -1.096073,-2.605569 z"
       id="path8" /><path
       style="fill:#ffffff;stroke:none;stroke-width:0.097186"
       d="m 21.944144,75.834711 c -1.227244,-0.297453 -2.889121,-0.877322 -3.693062,-1.288595 -1.670426,-0.854541 -5.543521,-3.856384 -5.543521,-4.296505 0,-0.161375 2.808848,-0.477105 6.241888,-0.70162 8.198617,-0.536178 8.465153,-0.772374 2.620574,-2.322261 C 14.691745,65.401724 8.651757,62.23794 5.2642648,58.684665 3.828342,57.178469 0.82925783,52.72696 1.2504214,52.72696 c 1.7532011,0 22.2816636,6.104787 24.4800446,7.279913 0.641427,0.342871 2.095026,1.138071 3.230221,1.767112 1.135195,0.629042 2.166615,1.041088 2.292043,0.91566 0.125429,-0.125431 -0.923314,-1.368148 -2.330542,-2.761594 -3.143205,-3.112426 -4.91321,-6.469534 -5.225227,-9.910506 l -0.217882,-2.402848 3.458154,2.399821 c 6.493386,4.506153 8.965777,7.532182 10.23384,12.525484 l 0.713253,2.808604 -3.834863,4.016584 c -2.109173,2.209123 -4.139586,4.53244 -4.512024,5.162929 -1.104858,1.870374 -3.53908,2.289236 -7.593295,1.306592 z"
       id="path9" /><path
       style="fill:#ffffff;stroke:none;stroke-width:0.097186"
       d="M 19.077135,55.677281 C 11.261589,52.838495 4.7469462,48.537387 0.79136533,43.604619 -1.6173915,40.600802 -2.8017151,38.428009 -3.9699614,34.869353 c -0.9138113,-2.783607 -1.0007354,-3.523282 -0.4140433,-3.523282 0.7301296,0 10.1945759,5.504326 15.7309617,9.148802 2.993326,1.970437 6.448282,4.145966 7.677684,4.834509 2.187424,1.225101 2.235274,1.288146 2.235274,2.945003 0,2.281119 0.711732,5.493848 1.61077,7.270965 0.910426,1.799621 0.807657,1.803196 -3.79355,0.131931 z"
       id="path10" /><path
       style="fill:#ffffff;stroke:none;stroke-width:0.097186"
       d="M 62.466721,171.23617 C 42.903795,168.91473 31.812628,166.43121 19.899314,161.70453 9.1152456,157.42588 0.37541336,152.26431 -4.8498116,147.0882 -15.674255,136.3655 -15.939308,124.73008 -5.6032309,114.01431 3.5219016,104.55398 18.64521,97.630815 40.308346,92.996903 c 7.089346,-1.516465 29.006808,-4.720683 29.46958,-4.3083 0.214915,0.191516 -14.641719,16.037457 -15.828492,16.882517 -1.941232,1.38228 -3.78198,1.97387 -9.901875,3.1823 -23.54137,4.6485 -35.2143905,10.07536 -38.3621886,17.83482 -0.3035777,0.74833 -0.5409354,2.43196 -0.5274654,3.74141 0.096967,9.42456 12.161716,16.26357 37.56151,21.29206 7.132862,1.41213 6.300059,0.88174 20.641468,13.14599 l 8.085913,6.91478 -3.03225,-0.0502 c -1.667735,-0.0276 -4.344257,-0.20585 -5.947825,-0.39614 z m -14.634033,-5.7087 c 5.015934,-2.21878 5.76801,-4.21355 2.789251,-7.39809 -4.665226,-4.9875 -11.35788,-5.6533 -17.956352,-1.78633 -1.922376,1.12658 -2.471799,2.44267 -1.576838,3.77714 1.595139,2.37849 4.873398,4.97261 7.549042,5.97364 2.036754,0.762 6.864117,0.46465 9.194897,-0.56636 z M 18.354475,153.00639 c 0.137716,-0.22282 -0.741426,-1.53483 -1.953648,-2.91557 -1.960949,-2.23355 -2.361195,-2.51006 -3.628954,-2.50706 -2.298703,0.005 -5.5067205,0.46861 -5.5067205,0.79502 0,0.16575 0.9184057,1.36591 2.0409001,2.66703 l 2.0409044,2.36567 3.378565,3e-5 c 1.924235,1e-5 3.486343,-0.17437 3.628953,-0.40512 z M 0.03372806,137.84448 c 3.24828644,-2.85203 4.27928034,-7.90117 2.41750004,-11.83936 -1.2189532,-2.57842 -2.88215706,-4.09409 -4.7641015,-4.3415 -1.2465571,-0.16387 -1.786234,0.0102 -3.1819423,1.02621 -4.7581683,3.46377 -4.7351433,11.74683 0.042273,15.20757 2.0866107,1.51153 3.7224284,1.49575 5.48627076,-0.0529 z M 16.105604,110.32411 c 2.803769,-3.0291 2.641939,-3.39033 -1.467257,-3.2752 l -3.29139,0.0922 -2.0409044,2.206 c -1.1224944,1.21329 -2.0409001,2.52856 -2.0409001,2.92281 0,0.65956 0.2717006,0.69839 3.4015045,0.48609 l 3.401505,-0.23073 z m 30.534427,-3.73394 c 2.833931,-1.34066 6.206131,-4.8749 6.036384,-6.32645 -0.156413,-1.337551 -2.611257,-3.245452 -5.649684,-4.390897 -1.849541,-0.697256 -2.833325,-0.818562 -5.552155,-0.684614 -4.785584,0.23577 -7.59705,1.850519 -10.429089,5.989881 l -0.833866,1.2188 1.699586,1.56663 c 4.318897,3.98102 9.799801,4.95846 14.728824,2.62665 z"
       id="path11" /><path
       style="fill:#ffffff;stroke:none;stroke-width:0.097186"
       d="m 36.615281,104.87307 c -1.282853,-0.61113 -2.652321,-1.47087 -3.043261,-1.91054 -0.671692,-0.75541 -0.674632,-0.8546 -0.05343,-1.80268 1.798836,-2.745381 6.530072,-4.794199 10.006139,-4.333082 2.23941,0.29707 5.13905,1.663971 6.400707,3.017325 l 0.870368,0.933627 -1.647854,1.60941 c -3.711895,3.62528 -8.251031,4.52565 -12.532672,2.48594 z m 7.303855,-0.83669 c 2.033418,-1.5995 1.556112,-4.813394 -0.863709,-5.815718 -2.440024,-1.010694 -4.6908,0.511017 -4.6908,3.171368 0,3.08255 3.113225,4.56466 5.554509,2.64435 z"
       id="path12" /><path
       style="fill:#ffffff;stroke:none;stroke-width:0.097186"
       d="m -4.9535237,135.77876 c -3.422341,-3.62874 -2.5085109,-10.83161 1.5295324,-12.05588 2.1257053,-0.64448 4.8579906,3.04418 4.8579906,6.55842 0,3.21631 -2.30917293,6.80301 -4.3798878,6.80301 -0.4269898,0 -1.3304257,-0.5875 -2.0076352,-1.30555 z m 4.44380577,-3.35937 c 1.59679133,-1.59679 0.67584289,-4.75807 -1.52708287,-5.24191 -1.2894193,-0.28321 -3.2917068,0.57043 -3.6738453,1.56626 -0.925475,2.41175 0.389474,4.45314 2.8684674,4.45314 1.0366494,0 1.8141363,-0.25917 2.33246077,-0.77749 z"
       id="path13" /><path
       style="fill:#ffffff;stroke:none;stroke-width:0.097186"
       d="m 11.450277,109.86087 c 0.869238,-0.79069 1.665994,-1.15124 2.526831,-1.14344 l 1.257284,0.0114 -1.26955,1.15483 c -0.869235,0.7907 -1.665991,1.15124 -2.526831,1.14344 l -1.257285,-0.0114 z"
       id="path14" /><path
       style="fill:#ffffff;stroke:none;stroke-width:0.097186"
       d="m 11.839021,150.70173 -1.269551,-1.15484 1.257285,-0.0114 c 0.860838,-0.008 1.657593,0.35274 2.526832,1.14344 l 1.26955,1.15483 -1.257284,0.0114 c -0.860841,0.008 -1.657594,-0.35275 -2.526832,-1.14344 z"
       id="path15" /><path
       style="fill:#ffffff;stroke:none;stroke-width:0.097186"
       d="m 62.989956,205.08905 c -15.438967,-3.24371 -27.332776,-12.2442 -34.14835,-25.84134 -2.000792,-3.9916 -5.182113,-12.8156 -4.769257,-13.22845 0.106151,-0.10615 1.035476,0.1198 2.065168,0.50212 l 1.87217,0.69512 1.4067,4.07952 c 3.411156,9.89257 9.133832,17.6466 17.255516,23.38065 6.361509,4.49134 14.148131,7.3278 20.116197,7.3278 1.966947,0 1.952249,-0.0155 2.483498,2.62402 0.252166,1.2529 0.2419,1.26318 -1.234392,1.23581 -0.818775,-0.0152 -3.090037,-0.36405 -5.04725,-0.77525 z"
       id="path16" /><path
       style="fill:#ffffff;stroke:none;stroke-width:0.097186"
       d="m -21.501864,233.68387 c 0,-0.14269 1.366141,-1.95784 3.035869,-4.03366 4.781491,-5.94439 8.118106,-10.79809 14.4217479,-20.97902 9.2678746,-14.96841 13.7063814,-21.00826 18.0239591,-24.52673 3.426436,-2.79226 7.143604,-4.28393 10.699789,-4.29376 1.470928,-0.004 1.749264,0.13994 2.332461,1.20672 0.364223,0.66624 1.584592,2.70317 2.711937,4.52653 1.127345,1.82336 1.976877,3.38803 1.887855,3.47706 -0.08902,0.089 -1.303912,0.32359 -2.699753,0.52126 -7.316573,1.03616 -13.197361,5.42884 -19.0342047,14.21768 -4.0252913,6.06109 -4.2057503,6.90901 -1.5640313,7.34883 0.8130196,0.13536 1.707475,0.31852 1.987674,0.40702 0.738908,0.23338 -3.7125351,6.57759 -7.2902653,10.39011 -5.1401767,5.4775 -11.5332762,9.59758 -16.9448437,10.92021 -2.730742,0.66741 -7.568194,1.1901 -7.568194,0.81775 z"
       id="path17" /><path
       style="fill:#ffffff;stroke:none;stroke-width:0.097186"
       d="m 20.67788,223.54943 c 0.899824,-6.54279 3.668085,-16.76492 5.037812,-18.60272 1.207706,-1.62042 1.862222,-2.94224 1.456883,-2.94224 -0.184023,0 -1.633387,0.98905 -3.22081,2.19789 -4.250023,3.23644 -7.226361,4.49577 -11.14702,4.71646 -1.875484,0.10557 -3.2071347,0.0284 -3.2071347,-0.18574 0,-0.55528 3.9314257,-6.15845 6.0565857,-8.63201 4.636701,-5.39685 8.452705,-7.61223 14.288357,-8.29512 l 3.680304,-0.43067 2.856815,2.63238 c 1.571249,1.44781 4.212558,3.59154 5.869577,4.76384 2.697819,1.90864 3.01276,2.26293 3.01276,3.38914 0,4.28846 -3.680113,10.9958 -7.563022,13.7843 l -1.747863,1.25522 -0.106665,-6.4968 c -0.06494,-3.95561 -0.261051,-6.5481 -0.501369,-6.62797 -0.217088,-0.0721 -0.903793,1.31292 -1.526006,3.07794 -2.916959,8.27444 -7.109515,14.2272 -12.399459,17.60524 l -1.102895,0.70428 z"
       id="path18" /><path
       style="fill:#ffffff;stroke:none;stroke-width:0.097186"
       d="m 3.576165,228.10851 c 1.8777505,-3.66367 4.8316885,-8.87851 6.564302,-11.58853 l 3.150209,-4.9273 2.65163,-0.71849 c 1.458397,-0.39516 3.354356,-1.07699 4.213241,-1.51516 1.457076,-0.74334 1.547262,-0.74943 1.347248,-0.091 -0.117899,0.38812 -0.395333,1.53161 -0.616519,2.54109 -1.938364,8.84656 -8.431374,17.54511 -15.7592135,21.11229 -5.49189566,2.67345 -5.45175066,2.79803 -1.5508975,-4.8129 z"
       id="path19" /><path
       style="fill:#ffffff;stroke:none;stroke-width:0.097186"
       d="M 99.111446,248.44314 C 95.177182,247.38359 92.198288,245.52828 88.39145,241.7665 81.691613,235.14597 76.076168,223.53669 72.637111,209.19622 70.844107,201.7196 68.448545,186.6264 67.367929,175.99781 l -0.2134,-2.09892 3.870762,0.23581 3.870761,0.23582 3.630319,2.91992 c 1.996675,1.60595 3.823359,3.3436 4.059301,3.86143 0.235942,0.51784 0.533053,2.22896 0.660252,3.80249 l 0.231261,2.86097 -0.794954,-2.41077 c -0.888751,-2.69524 -2.920648,-5.16973 -4.245049,-5.16973 -2.131599,0 -4.900935,2.55425 -6.060066,5.5894 -0.919136,2.40672 -0.663435,7.15588 0.507867,9.43264 1.073402,2.08646 3.785349,4.41514 5.141817,4.41514 1.182794,0 3.513048,-2.05583 4.505386,-3.9748 0.346237,-0.66955 0.760098,-2.45448 0.919689,-3.96651 0.233313,-2.21044 0.300927,-2.40635 0.345059,-0.99979 0.09206,2.93385 1.583868,12.41321 2.575515,16.36553 2.934894,11.69733 7.426979,18.22731 13.913401,20.2254 3.20635,0.98769 5.07568,0.79394 8.4085,-0.87149 5.67774,-2.8372 10.3911,-10.65828 13.23899,-21.96804 0.34085,-1.35361 0.59083,-1.64136 1.60152,-1.8435 1.96518,-0.39303 1.12926,-1.1247 -2.98291,-2.61088 -10.91292,-3.94402 -27.749745,-14.30501 -42.741118,-26.30189 -12.270304,-9.81934 -29.436235,-25.17566 -34.1714,-30.56909 l -2.247167,-2.55956 1.011274,-1.72561 1.011275,-1.72561 8.456911,8.46102 c 11.745436,11.75114 26.552747,24.48229 39.037551,33.56401 12.838504,9.33902 27.464694,17.00212 32.451114,17.00212 1.73514,0 1.77683,-0.0283 1.57603,-1.06905 -0.11343,-0.58797 -0.4962,-1.8766 -0.85058,-2.86362 -0.82996,-2.31155 -0.28375,-4.61134 1.52474,-6.41983 1.67869,-1.67869 2.98712,-1.97183 4.91695,-1.10159 3.93325,1.77365 4.18117,7.33797 0.49548,11.1206 -0.75877,0.77873 -2.06224,1.7237 -2.8966,2.09995 -1.71756,0.77451 -1.86383,1.13052 -0.71673,1.74443 3.88985,2.08178 9.56547,-7.15173 7.75953,-12.62376 -1.06267,-3.21995 -4.21057,-5.28183 -7.13455,-4.67316 -4.11058,0.85568 -6.7153,4.42396 -6.40101,8.76894 l 0.17107,2.36512 -1.17745,-0.23549 c -1.42442,-0.28489 -9.96081,-4.10288 -9.94551,-4.44824 0.006,-0.13464 1.61275,-1.38188 3.57064,-2.77163 11.45706,-8.13251 18.99343,-14.64577 26.39124,-22.80846 2.86471,-3.1609 7.81025,-8.46242 10.9901,-11.78116 11.054,-11.53685 18.4102,-21.60352 24.14996,-33.04826 1.96542,-3.91894 2.24855,-4.29803 3.02864,-4.05509 1.69099,0.52661 2.60989,0.92569 2.60989,1.13347 0,0.50599 -4.11515,8.34511 -6.38239,12.15811 -6.02912,10.13959 -10.48017,15.54289 -26.38538,32.03023 -6.53081,6.76985 -12.05728,12.65089 -12.28104,13.06898 -0.54715,1.02236 -0.2224,1.25113 1.77611,1.25113 1.55156,0 1.67625,0.0726 1.50262,0.87467 -0.10413,0.48107 -0.46737,3.32376 -0.80719,6.31708 -3.03233,26.71018 -8.64502,45.87793 -16.5888,56.65193 -6.38712,8.66274 -15.24279,12.7126 -23.144714,10.58452 z m 8.270664,-5.05771 c 4.62494,-1.20433 7.6284,-3.84563 7.70524,-6.77613 0.0338,-1.28901 -0.20356,-1.78806 -1.46479,-3.07968 -0.82783,-0.84777 -2.57407,-2.1213 -3.88055,-2.83007 -2.21554,-1.20194 -2.62397,-1.28867 -6.06848,-1.28867 -3.26007,0 -3.953607,0.12794 -5.915219,1.09122 -3.166398,1.5549 -5.733706,4.00789 -5.977961,5.71179 -0.384051,2.67911 2.241145,5.19352 7.180046,6.87704 3.046944,1.03861 5.266114,1.11621 8.421714,0.2945 z m 15.5992,-20.18644 c 0.45159,-0.3163 1.54988,-1.44558 2.44064,-2.50949 l 1.61956,-1.9344 -0.26952,-3.32165 c -0.18367,-2.26373 -0.42503,-3.32165 -0.75781,-3.32165 -0.26857,0 -1.46688,1.00587 -2.6629,2.23527 -1.68691,1.73398 -2.17568,2.50583 -2.17944,3.44167 -0.008,2.04007 0.48058,5.98536 0.74152,5.98536 0.13577,0 0.61635,-0.2588 1.06795,-0.57511 z m -37.814689,-0.42854 c 0.129784,-0.3382 0.235964,-1.92309 0.235964,-3.52197 v -2.90705 l -2.000107,-2.11482 c -1.100059,-1.16315 -2.215267,-2.11481 -2.478241,-2.11481 -0.600176,0 -0.96406,1.76728 -0.96406,4.68218 0,2.16623 0.07597,2.33567 1.982724,4.42196 2.048748,2.24166 2.817741,2.61247 3.22372,1.55451 z m 45.302409,-29.88707 c 1.91863,-0.99217 2.23149,-3.73998 0.60029,-5.27241 -2.16319,-2.03221 -5.62615,-0.50315 -5.62615,2.4842 0,2.67084 2.53415,4.07672 5.02586,2.78821 z"
       id="path20" /><path
       style="fill:#ffffff;stroke:none;stroke-width:0.097186"
       d="m 140.91642,171.06187 c 0.80156,-1.46996 17.78494,-17.91012 18.93054,-18.32504 0.64143,-0.23231 5.01479,-1.33227 9.71859,-2.44435 15.5693,-3.68093 22.76898,-6.53419 27.55586,-10.9205 6.92147,-6.34227 6.52023,-13.53699 -1.07336,-19.24662 -6.63903,-4.9919 -16.60388,-8.53062 -33.26786,-11.81408 -4.81833,-0.94941 -8.39247,-1.85634 -9.14255,-2.31991 -1.2678,-0.78355 -5.24997,-4.81342 -13.00545,-13.161202 l -4.44252,-4.781809 2.4988,0.254325 c 19.69923,2.004965 39.00976,6.593896 52.98924,12.592296 19.45946,8.3498 30.21729,20.53657 28.2995,32.05851 -0.88797,5.33485 -4.40424,10.86913 -10.06116,15.83531 -7.2361,6.35253 -20.79248,13.08107 -34.06329,16.90689 -8.17972,2.35812 -23.43296,5.13465 -32.08709,5.84077 -3.11873,0.25448 -3.23613,0.23492 -2.84925,-0.47459 z m 25.42286,-4.86265 c 4.90226,-1.0223 10.02928,-4.52244 10.02928,-6.84683 0,-1.45202 -2.5963,-4.01015 -4.892,-4.8201 -2.35258,-0.83001 -7.67448,-0.62753 -10.32618,0.39287 -2.44548,0.94105 -5.2848,3.23989 -6.56999,5.31938 -0.80875,1.30859 -0.81584,1.4009 -0.16289,2.1224 0.96014,1.06094 4.22237,3.1028 5.93313,3.7136 1.79139,0.63959 3.34326,0.67034 5.98865,0.11868 z m 31.15662,-15.09129 c 1.2085,-1.26698 2.19727,-2.47582 2.19727,-2.6863 0,-0.21049 -1.51654,-0.50903 -3.37007,-0.66344 l -3.37008,-0.28072 -2.26671,2.34522 c -3.17886,3.28896 -3.08086,3.58884 1.17281,3.58884 h 3.43952 z m 15.59507,-14.1208 c 2.84438,-2.94096 3.55561,-5.8622 2.37908,-9.77152 -1.00751,-3.34769 -3.45913,-5.68104 -5.96902,-5.68104 -1.47394,0 -4.05482,2.2228 -5.10877,4.39995 -2.42361,5.00652 0.85144,13.09351 5.30258,13.09351 1.20592,0 1.72249,-0.31043 3.39613,-2.0409 z m -13.3978,-24.68797 c 0,-0.37568 -0.78713,-1.64396 -1.74918,-2.81839 -1.8983,-2.31738 -2.73166,-2.65242 -6.70599,-2.69605 -1.76096,-0.0193 -2.04091,0.08 -2.04091,0.72376 0,0.41039 0.88343,1.71277 1.96317,2.89417 2.07966,2.27548 2.19946,2.31921 6.88075,2.51165 1.34263,0.0552 1.65216,-0.0601 1.65216,-0.61514 z m -29.82723,-5.18381 c 2.25459,-0.75952 5.39226,-2.70819 6.48962,-4.03043 0.6404,-0.77164 -0.5668,-2.73773 -2.99149,-4.872028 -4.71234,-4.147964 -13.87019,-4.05672 -17.97571,0.1791 -1.66906,1.722028 -1.39607,3.031558 1.12324,5.388098 4.20498,3.93326 8.43969,4.99089 13.35434,3.33526 z"
       id="path21" /><path
       style="fill:#ffffff;stroke:none;stroke-width:0.097186"
       d="m 179.67288,75.710364 c -0.98066,-0.449582 -2.51227,-1.846312 -4.14689,-3.78171 -1.42556,-1.687862 -3.39357,-3.848735 -4.37337,-4.801939 -2.01722,-1.962475 -2.10439,-2.454569 -1.00225,-5.657974 1.56302,-4.542999 4.27275,-7.645821 10.30371,-11.798427 l 3.0278,-2.084787 -0.2192,2.417434 c -0.31417,3.464745 -2.13561,6.936412 -5.24852,10.003687 -1.38282,1.362543 -2.42885,2.562717 -2.32451,2.667053 0.24335,0.243356 2.00433,-0.523552 3.96434,-1.726475 2.02897,-1.245246 12.63347,-4.788236 19.45606,-6.500318 2.99333,-0.751155 5.75996,-1.460846 6.14809,-1.577091 0.65888,-0.197342 0.65294,-0.108 -0.0896,1.34752 -1.16905,2.291519 -4.79319,6.029971 -7.74765,7.99202 -3.49189,2.318946 -6.44595,3.583612 -11.47724,4.913524 -6.12783,1.619761 -6.10886,1.835312 0.20811,2.365568 2.42327,0.203412 5.36779,0.469331 6.54338,0.590937 l 2.13743,0.221096 -1.55432,1.3125 c -2.99202,2.526533 -8.28239,4.825465 -11.07853,4.814178 -0.53452,-0.0021 -1.6716,-0.324718 -2.52683,-0.716796 z"
       id="path22" /><path
       style="fill:#ffffff;stroke:none;stroke-width:0.097186"
       d="m 182.15244,94.492595 c -2.21552,-0.682244 -2.37023,-0.876789 -3.38134,-4.251891 -1.0929,-3.648091 -3.8075,-9.084111 -6.273,-12.56171 -7.16773,-10.110113 -19.23331,-17.211386 -32.14303,-18.917978 -1.83652,-0.242776 -2.01763,-0.36013 -2.23527,-1.448366 -0.51548,-2.577367 -0.4243,-2.715353 1.60969,-2.436043 1.01559,0.139462 3.42094,0.612101 5.34522,1.050306 17.03126,3.878429 32.61656,17.76303 37.6441,33.536302 0.98005,3.074797 1.60655,5.662187 1.35832,5.609707 -0.0704,-0.0149 -0.93655,-0.27604 -1.92469,-0.580327 z"
       id="path23" /><path
       style="fill:#ffffff;stroke:none;stroke-width:0.097186"
       d="m 164.21187,61.70127 c -2.87774,-1.878605 -3.00431,-2.023631 -3.00431,-3.442378 0,-2.296078 1.08543,-5.921057 2.3744,-7.929747 1.78692,-2.78466 6.12188,-6.670728 13.05987,-11.70749 14.45811,-10.496129 27.33216,-22.030811 33.0032,-29.5696674 l 1.71044,-2.2737935 -0.007,2.8569082 c -0.023,9.7523947 -5.26511,19.3003347 -15.1691,27.6290867 -3.88783,3.269475 -10.15894,7.299159 -11.35916,7.299159 -0.75489,0 -2.34185,0.869703 -4.91173,2.691791 -8.86916,6.288376 -10.43284,8.237058 -12.44362,15.507329 -0.24472,0.884788 -0.29982,0.866815 -3.25324,-1.061198 z"
       id="path24" /><path
       style="fill:#ffffff;stroke:none;stroke-width:0.097186"
       d="m 183.95419,56.322838 c 0.80838,-1.94537 1.35167,-4.300487 1.58432,-6.867855 l 0.25922,-2.860575 1.60249,-0.879342 c 0.88138,-0.483638 4.48892,-2.754644 8.01677,-5.046679 6.96162,-4.522951 15.84554,-9.544835 16.221,-9.169376 0.43127,0.431268 -1.09589,5.045348 -2.67362,8.077951 -3.59314,6.906472 -11.05467,12.546867 -21.45041,16.215019 -4.02306,1.419542 -3.92284,1.404596 -3.55977,0.530857 z"
       id="path25" /><path
       style="fill:#ffffff;stroke:none;stroke-width:0.097186"
       d="m 222.30791,233.84847 c -7.78901,-1.34639 -17.22738,-8.57695 -24.15325,-18.50334 -1.29191,-1.85161 -2.34893,-3.51152 -2.34893,-3.68869 0,-0.17717 0.62377,-0.32213 1.38616,-0.32213 1.70568,0 2.89002,-0.59375 2.89002,-1.44885 0,-0.35421 -0.72858,-1.87873 -1.61906,-3.38783 -6.01317,-10.19052 -13.47893,-16.27599 -20.63127,-16.81692 l -2.97306,-0.22486 1.46948,-2.18086 c 0.80821,-1.19948 2.12517,-3.36167 2.92656,-4.80488 1.4022,-2.52516 1.51287,-2.62402 2.93766,-2.62402 2.30436,0 6.30704,1.40773 8.8711,3.11995 4.9363,3.29633 9.04265,8.79445 18.71938,25.06395 7.41208,12.46193 10.26778,16.57726 16.2863,23.47002 1.68331,1.92783 1.93321,2.38142 1.31201,2.38142 -0.42205,0 -1.2703,0.0731 -1.885,0.16247 -0.6147,0.0893 -2.04934,0.001 -3.1881,-0.19543 z"
       id="path26" /><path
       style="fill:#ffffff;stroke:none;stroke-width:0.097186"
       d="m 183.67937,223.79265 c -3.88859,-2.78457 -8.16095,-9.28105 -10.82244,-16.45646 -0.69838,-1.88282 -1.45927,-3.35099 -1.69592,-3.27233 -0.28353,0.0942 -0.46549,2.27616 -0.53605,6.42776 -0.0768,4.51648 -0.23614,6.2851 -0.56639,6.2851 -1.05561,0 -5.28412,-4.97304 -6.63558,-7.80393 -1.53039,-3.20569 -2.62852,-7.80248 -1.92033,-8.03855 1.02914,-0.34304 5.98143,-4.13204 8.70797,-6.66247 3.35959,-3.11795 3.75104,-3.21883 8.54636,-2.20244 6.08333,1.2894 10.82501,5.23012 16.32922,13.57093 1.24907,1.89278 2.17403,3.59839 2.05546,3.79025 -0.88548,1.43273 -9.24419,-1.65724 -14.4285,-5.33379 -3.51911,-2.49564 -4.17205,-2.26944 -1.93465,0.67024 1.37532,1.80699 2.16577,3.87913 3.16879,8.30694 0.74863,3.30476 2.17866,11.95718 2.00495,12.1309 -0.069,0.069 -1.09184,-0.56643 -2.27289,-1.41215 z"
       id="path27" /><path
       style="fill:#ffffff;stroke:none;stroke-width:0.097186"
       d="m 201.31229,233.08938 c -6.09886,-3.05257 -12.24152,-10.83314 -15.03362,-19.04222 -1.18421,-3.48174 -1.29113,-5.27011 -0.28871,-4.82939 1.41579,0.62246 6.05251,2.11654 6.56846,2.11654 0.87947,0 5.49726,7.46065 9.35978,15.122 1.98337,3.93401 3.60612,7.38897 3.60612,7.67768 0,0.84237 -0.87605,0.62511 -4.21203,-1.04461 z"
       id="path28" /><path
       style="fill:#ffffff;stroke:none;stroke-width:0.097186"
       d="m 137.68011,204.43411 c 0.38461,-2.05815 0.69453,-2.29688 3.37555,-2.60021 3.92527,-0.44409 9.62476,-2.10067 13.43969,-3.90629 11.16711,-5.28546 18.88009,-14.10758 23.41461,-26.78168 l 1.37418,-3.84086 1.89771,-0.74048 c 1.04374,-0.40727 1.98595,-0.65225 2.09379,-0.54441 0.33149,0.3315 -2.1943,7.18805 -4.22162,11.46008 -6.02759,12.70153 -15.91417,21.79219 -28.1077,25.84488 -3.61181,1.20043 -10.05211,2.56676 -12.09865,2.56676 h -1.43998 z"
       id="path29" /><path
       style="fill:#ffffff;stroke:none;stroke-width:0.097186"
       d="m 106.29755,186.54872 c -0.58797,-0.36455 -1.06904,-0.7666 -1.06904,-0.89344 0,-0.12685 1.44321,-1.25473 3.20713,-2.50639 1.76393,-1.25167 8.19277,-6.05945 14.28632,-10.68395 13.27607,-10.07544 17.84172,-13.39232 18.0911,-13.14293 0.32127,0.32126 -8.02932,9.10059 -11.28809,11.86764 -7.51088,6.37757 -20.5171,16.05014 -21.5577,16.03222 -0.33037,-0.006 -1.08174,-0.30861 -1.66972,-0.67315 z"
       id="path30" /><path
       style="fill:#ffffff;stroke:none;stroke-width:0.097186"
       d="m 87.225932,199.38045 c -0.09144,-0.16036 -0.279414,-0.91977 -0.417717,-1.68759 -0.242014,-1.3436 -0.190846,-1.42336 1.362414,-2.12378 0.887632,-0.40027 3.279743,-1.64818 5.315805,-2.77314 l 3.701928,-2.04538 1.493239,0.83924 c 0.821282,0.46159 1.493239,0.94367 1.493239,1.07129 0,0.45325 -11.786835,7.01092 -12.601518,7.01092 -0.09962,0 -0.25595,-0.1312 -0.34739,-0.29156 z"
       id="path31" /><path
       style="fill:#ffffff;stroke:none;stroke-width:0.0215471"
       d="m 82.061831,44.669464 c -0.0291,-0.115933 -0.0392,-0.824608 -0.02246,-1.574837 0.02663,-1.193049 0.05356,-1.407274 0.214797,-1.708809 0.174204,-0.325787 0.857144,-1.161907 1.654357,-2.025425 l 0.358069,-0.38785 -0.02225,1.766864 c -0.02643,2.100442 -0.0053,2.037654 -1.06866,3.177198 -0.883475,0.946793 -1.038833,1.051801 -1.113864,0.752859 z"
       id="path32" /><path
       style="fill:#ffffff;stroke:none;stroke-width:0.0215471"
       d="m 123.97251,43.888168 c -1.10517,-1.323494 -1.2289,-1.61399 -1.15466,-2.710963 0.0275,-0.406702 0.0954,-1.037873 0.15085,-1.402601 l 0.1008,-0.663147 0.85453,0.964806 c 0.50158,0.566311 0.96553,1.187931 1.12328,1.505032 0.25877,0.520144 0.26663,0.568211 0.21137,1.292826 -0.0645,0.845611 -0.21533,1.813422 -0.31022,1.990259 -0.0437,0.08149 -0.34114,-0.216001 -0.97595,-0.976212 z"
       id="path33" /><path
       style="fill:#ffffff;stroke:none;stroke-width:0.0215471"
       d="m 109.04318,67.451345 c -1.32841,-0.796517 -1.73012,-1.107178 -1.8584,-1.437198 -0.33162,-0.85312 1.53112,-1.942171 7.37565,-4.312158 3.62354,-1.469366 3.99131,-1.599983 4.52489,-1.607031 0.45874,-0.0061 0.47875,0.0035 0.62029,0.295397 0.1503,0.309977 0.50016,2.17356 0.50016,2.664147 0,0.410475 -0.21606,0.751634 -0.62535,0.987473 -0.2012,0.115932 -1.10045,0.507839 -1.99834,0.870902 -2.18358,0.882944 -4.28454,1.818741 -5.91546,2.634835 l -1.34242,0.671732 z"
       id="path34" /><path
       style="fill:#ffffff;stroke:none;stroke-width:0.0215471"
       d="m 101.97692,28.459837 c -2.440937,-0.389246 -4.625863,-1.464852 -6.834565,-3.36455 -1.075568,-0.925094 -1.602317,-1.477245 -1.795251,-1.881831 -0.128241,-0.268924 -0.12727,-0.313197 0.01336,-0.60953 0.171498,-0.361405 1.633133,-1.761049 2.669469,-2.556253 3.7238,-2.857357 8.070967,-3.465184 12.152567,-1.699193 1.57178,0.680066 3.04361,1.733924 4.87437,3.49016 l 1.16828,1.120714 -1.20375,1.154619 c -1.80713,1.733378 -2.64186,2.358179 -4.18775,3.134573 -2.2353,1.122637 -4.69158,1.556557 -6.85671,1.211291 z m 2.46878,-1.807313 c 1.81876,-0.385495 2.918,-1.782947 2.918,-3.709618 0,-2.142804 -1.39008,-3.644442 -3.52533,-3.808254 -1.2375,-0.09494 -2.3437,0.311676 -3.10042,1.139644 -1.113647,1.21851 -1.353124,2.985436 -0.60371,4.454405 0.38347,0.751657 1.40103,1.63656 2.2171,1.928069 0.41611,0.148638 1.3823,0.146679 2.09436,-0.0042 z"
       id="path35" /><path
       style="fill:#ffffff;stroke:none;stroke-width:0.0215471"
       d="m 164.50659,105.76554 c -3.02445,-0.45872 -5.88623,-1.69285 -7.37504,-3.18045 -0.96161,-0.96084 -1.25163,-1.92145 -0.7905,-2.618347 0.92178,-1.393064 4.8909,-3.059235 8.06756,-3.386622 1.16799,-0.12037 1.95098,-0.0381 3.01544,0.316977 2.62014,0.873927 6.30763,3.443232 6.91617,4.818942 l 0.17479,0.39515 -0.18381,0.29741 c -0.22707,0.36741 -1.49684,1.33083 -2.68436,2.03672 -1.91091,1.13589 -2.74486,1.37935 -4.85626,1.41775 -0.9697,0.0177 -1.7421,-0.0153 -2.28399,-0.0975 z m 1.75939,-1.12991 c 0.94651,-0.28948 1.69784,-0.96052 2.1527,-1.92269 0.23969,-0.50701 0.26685,-0.64745 0.26741,-1.3831 5.3e-4,-0.70879 -0.0304,-0.88501 -0.23035,-1.31163 -0.32276,-0.688624 -0.92778,-1.304681 -1.61167,-1.641078 -0.53122,-0.26131 -0.62651,-0.27936 -1.47425,-0.27936 -0.82775,0 -0.95116,0.0219 -1.42345,0.25304 -0.6706,0.328147 -1.44704,1.103974 -1.74829,1.746918 -0.20027,0.42741 -0.23405,0.61146 -0.23405,1.2752 0,1.004 0.2376,1.54826 1.01066,2.31512 1.10573,1.09687 1.98007,1.3486 3.29129,0.94758 z"
       id="path36" /><path
       style="fill:#ffffff;stroke:none;stroke-width:0.0215471"
       d="m 192.98636,110.01333 c -0.54971,-0.62809 -1.05591,-1.24935 -1.12487,-1.38056 -0.11262,-0.21425 -0.11076,-0.24418 0.0183,-0.29369 0.17131,-0.0657 1.80858,0.11149 2.48708,0.26921 0.26392,0.0614 0.63114,0.21639 0.81604,0.34452 0.27865,0.19311 1.22621,1.17599 1.93785,2.01008 l 0.16419,0.19244 h -1.64953 -1.64952 z"
       id="path37" /><path
       style="fill:#ffffff;stroke:none;stroke-width:0.0215471"
       d="m 192.17544,150.68036 c 0.90395,-0.89356 1.24285,-1.17387 1.5083,-1.24757 0.49684,-0.13793 2.63886,-0.1258 2.83285,0.0161 0.1426,0.10427 0.12959,0.14172 -0.1872,0.53868 -0.5232,0.65561 -1.52246,1.57881 -1.86283,1.72102 -0.23277,0.0973 -0.6813,0.1273 -1.88134,0.12602 l -1.5757,-0.002 z"
       id="path38" /><path
       style="fill:#ffffff;stroke:none;stroke-width:0.0215471"
       d="m 208.85051,137.09466 c -1.7176,-0.66466 -3.33064,-3.37544 -3.66252,-6.155 -0.16056,-1.34472 0.041,-2.6572 0.59589,-3.88107 0.89653,-1.97727 2.76478,-3.7507 3.95122,-3.7507 0.74759,0 2.03677,0.85623 2.8901,1.9195 1.15824,1.44319 1.7538,3.65093 1.52821,5.66508 -0.25154,2.24588 -1.0437,3.90651 -2.54278,5.33048 -1.06382,1.01053 -1.80031,1.24313 -2.76012,0.87171 z m 2.15174,-4.07813 c 0.65652,-0.30057 1.20292,-0.83825 1.53282,-1.50837 0.25357,-0.51508 0.28003,-0.64262 0.27931,-1.34648 -7.9e-4,-0.67602 -0.031,-0.83497 -0.23225,-1.21772 -0.30167,-0.57376 -0.98633,-1.18216 -1.60263,-1.42414 -0.38726,-0.15205 -0.67407,-0.19412 -1.35329,-0.19855 -0.75676,-0.005 -0.92062,0.0219 -1.34338,0.22018 -0.5899,0.27664 -1.03884,0.7131 -1.34426,1.30693 -0.32859,0.63888 -0.38336,1.78569 -0.11879,2.48771 0.21488,0.57016 0.73622,1.19613 1.2441,1.49376 0.87843,0.5148 2.05798,0.58974 2.93837,0.18668 z"
       id="path39" /><path
       style="fill:#ffffff;stroke:none;stroke-width:0.0215471"
       d="m 163.47233,164.84019 c -3.93806,-0.4528 -7.54535,-2.29418 -7.19885,-3.67473 0.0883,-0.35188 0.90385,-1.55259 1.47314,-2.1689 1.63804,-1.77334 4.0012,-2.98147 6.58322,-3.36559 0.9399,-0.13983 2.81962,-0.11615 3.7853,0.0477 1.70904,0.28995 3.44051,1.00952 4.8531,2.01687 0.85653,0.61081 1.07103,0.9348 0.98308,1.48485 -0.22498,1.40693 -2.15777,3.3306 -4.60318,4.58146 -2.03424,1.04054 -3.64065,1.33536 -5.87581,1.07836 z m 3.1251,-1.52531 c 0.495,-0.22024 1.20723,-0.86809 1.49591,-1.36067 0.11599,-0.19792 0.2698,-0.64238 0.34179,-0.98768 0.32762,-1.57127 -0.40149,-3.1366 -1.7569,-3.77194 -0.43437,-0.20361 -0.59529,-0.23014 -1.39594,-0.23014 -0.80336,0 -0.96081,0.0262 -1.40214,0.23297 -0.66586,0.31203 -1.33911,1.0017 -1.70622,1.74784 -0.27238,0.55361 -0.2958,0.66404 -0.29245,1.37902 0.003,0.67504 0.0347,0.8371 0.24004,1.2328 0.43848,0.84502 1.18976,1.51291 2.06866,1.83905 0.60357,0.22396 1.81302,0.18315 2.40725,-0.0812 z"
       id="path40" /><path
       style="fill:#ffffff;stroke:none;stroke-width:0.0215471"
       d="m 122.97595,219.63531 c -0.13359,-1.31773 -0.12454,-1.99525 0.0307,-2.29539 0.28344,-0.5481 1.79403,-2.24141 1.99956,-2.24141 0.16346,0 0.19904,0.24952 0.26629,1.8676 l 0.0615,1.47975 -1.12983,1.07976 -1.12984,1.07977 z"
       id="path41" /><path
       style="fill:#ffffff;stroke:none;stroke-width:0.0215471"
       d="m 101.89074,241.85384 c -4.933796,-0.75531 -8.956825,-3.71377 -8.100226,-5.95674 0.466212,-1.22076 3.328514,-3.19404 5.863439,-4.04228 1.655887,-0.55409 2.389147,-0.6711 4.219117,-0.67323 1.38708,-0.002 1.77601,0.0281 2.54253,0.19451 1.6504,0.35823 3.3195,1.09656 4.56801,2.02066 1.15855,0.85752 2.67254,2.54345 2.67103,2.97438 -0.002,0.64608 -1.24276,2.05594 -2.76183,3.13888 -1.02376,0.72983 -3.16757,1.80864 -4.14208,2.08438 -1.44183,0.40797 -3.25686,0.50486 -4.85999,0.25944 z m 2.72083,-1.55345 c 1.07928,-0.317 2.04815,-1.23193 2.48903,-2.35046 0.78136,-1.98234 0.0194,-3.96405 -1.88714,-4.90805 -0.62801,-0.31095 -0.66356,-0.31785 -1.63758,-0.31785 -0.94821,0 -1.02289,0.0133 -1.56768,0.27988 -0.78648,0.38478 -1.44323,1.05253 -1.85537,1.88643 -0.325937,0.6595 -0.330627,0.68313 -0.330627,1.66908 0,0.98177 0.006,1.01207 0.322887,1.65341 0.4841,0.9795 1.56525,1.93148 2.43515,2.14419 0.46897,0.11468 1.55078,0.0845 2.03133,-0.0566 z"
       id="path42" /><path
       style="fill:#ffffff;stroke:none;stroke-width:0.0215471"
       d="m 82.846689,219.74864 c -1.026063,-1.2425 -1.271358,-1.73054 -1.320946,-2.62819 -0.041,-0.74213 0.09352,-1.60604 0.273312,-1.75526 0.294524,-0.24443 1.48426,0.92679 1.961645,1.93113 0.282487,0.5943 0.29659,0.84514 0.11566,2.05745 -0.224499,1.50427 -0.140222,1.47195 -1.029671,0.39487 z"
       id="path43" /><path
       style="fill:#ffffff;stroke:none;stroke-width:0.0215471"
       d="m 77.57703,197.77199 c -0.396761,-0.1964 -1.351529,-1.02953 -1.998342,-1.74377 -1.685872,-1.8616 -2.538288,-4.42334 -2.262169,-6.79844 0.194992,-1.67726 0.779711,-3.17977 1.753174,-4.50502 0.603311,-0.82133 2.019416,-2.22044 2.458109,-2.42862 0.298151,-0.14148 0.319534,-0.13985 0.681199,0.052 0.541006,0.28701 1.452043,1.07779 2.017937,1.75158 2.691225,3.20433 2.831732,8.07152 0.329859,11.42636 -0.665205,0.892 -1.898896,2.13727 -2.271721,2.29304 -0.37206,0.15546 -0.287359,0.1611 -0.708046,-0.0471 z m 1.542563,-4.82478 c 1.648934,-0.61695 2.42306,-2.80987 1.554962,-4.40485 -0.689938,-1.26765 -2.3226,-1.92592 -3.724188,-1.50155 -1.709867,0.51771 -2.722277,2.68537 -2.008182,4.2997 0.333645,0.75426 1.334693,1.55109 2.233676,1.77799 0.477573,0.12054 1.375145,0.0414 1.943732,-0.17129 z"
       id="path44" /><path
       style="fill:#ffffff;stroke:none;stroke-width:0.0215471"
       d="m 40.567701,164.89507 c -1.325644,-0.26453 -2.601224,-0.82041 -3.921572,-1.70895 -0.905417,-0.60932 -3.62245,-3.27122 -3.863393,-3.785 -0.136803,-0.29172 -0.138623,-0.34472 -0.01974,-0.5746 0.150863,-0.29174 1.44126,-1.28738 2.41336,-1.8621 3.733321,-2.2072 8.074792,-2.09759 11.695734,0.29529 1.012754,0.66928 2.092979,1.67289 3.108479,2.88803 l 0.923369,1.1049 -0.303347,0.3702 c -0.761339,0.92911 -2.933005,2.20748 -4.809517,2.83115 -1.647319,0.5475 -3.785335,0.72805 -5.223364,0.44108 z m 2.445666,-1.59543 c 0.653057,-0.31375 1.361331,-1.02394 1.69491,-1.69949 0.243319,-0.49276 0.294497,-0.70197 0.325056,-1.32878 0.04246,-0.87087 -0.04917,-1.22744 -0.480232,-1.86873 -0.395155,-0.58788 -1.106678,-1.09491 -1.855816,-1.32245 -0.828157,-0.25155 -1.82553,-0.19946 -2.500051,0.13055 -0.58335,0.2854 -1.247939,0.98669 -1.58414,1.67161 -0.217516,0.44313 -0.243165,0.58628 -0.243181,1.35726 -1.6e-5,0.74833 0.02952,0.92485 0.224169,1.33985 0.395941,0.84416 1.135448,1.50413 2.061839,1.84008 0.576189,0.20896 1.802789,0.14657 2.357446,-0.1199 z"
       id="path45" /><path
       style="fill:#ffffff;stroke:none;stroke-width:0.0215471"
       d="m 12.513383,151.66531 c -0.189614,-0.0939 -0.828979,-0.65628 -1.420815,-1.24966 l -1.076061,-1.07887 h 1.367722 c 0.824545,0 1.508606,0.0417 1.722474,0.10511 0.273738,0.0811 0.620475,0.36595 1.518296,1.24731 l 1.163542,1.1422 -1.465202,0.002 c -1.290169,0.002 -1.506386,-0.018 -1.809956,-0.16844 z"
       id="path46" /><path
       style="fill:#ffffff;stroke:none;stroke-width:0.0215471"
       d="m 35.383765,133.32811 c -1.905373,-2.10902 -9.985219,-16.30473 -9.985219,-17.54331 0,-0.0709 0.25077,-0.23575 0.581771,-0.38248 0.557014,-0.2469 2.23007,-0.81619 2.703931,-0.92005 0.219845,-0.0482 0.261533,0.0204 1.526791,2.51344 2.172298,4.2802 3.557529,6.68232 6.121067,10.61452 l 1.596779,2.44929 -0.287954,0.52421 c -0.71768,1.30652 -1.572607,2.70848 -1.757675,2.88234 l -0.202761,0.19049 z"
       id="path47" /></g></svg>
